<svg xmlns="http://www.w3.org/2000/svg" xmlns:xlink="http://www.w3.org/1999/xlink" width="536" zoomAndPan="magnify" viewBox="0 0 402 106.499997" height="142" preserveAspectRatio="xMidYMid meet" version="1.0"><defs><g/><clipPath id="529d8fe2bd"><path d="M 183.445312 0.621094 L 292 0.621094 L 292 106 L 183.445312 106 Z M 183.445312 0.621094 " clip-rule="nonzero"/></clipPath><clipPath id="62ceb2faf6"><path d="M 111.277344 0.621094 L 220 0.621094 L 220 106 L 111.277344 106 Z M 111.277344 0.621094 " clip-rule="nonzero"/></clipPath></defs><g fill="#000000" fill-opacity="1"><g transform="translate(35.815518, 68.179897)"><g><path d="M 31.453125 0 L 31.359375 -16.625 L 23.296875 -3.09375 L 19.359375 -3.09375 L 11.328125 -16.171875 L 11.328125 0 L 3.140625 0 L 3.140625 -31.359375 L 10.4375 -31.359375 L 21.453125 -13.265625 L 32.203125 -31.359375 L 39.515625 -31.359375 L 39.59375 0 Z M 31.453125 0 "/></g></g></g><g fill="#000000" fill-opacity="1"><g transform="translate(75.140846, 68.179897)"><g><path d="M 13.078125 -24.6875 C 17.109375 -24.6875 20.179688 -23.765625 22.296875 -21.921875 C 24.421875 -20.085938 25.484375 -17.273438 25.484375 -13.484375 L 25.484375 0 L 17.5625 0 L 17.5625 -3.140625 C 16.332031 -0.773438 13.941406 0.40625 10.390625 0.40625 C 8.515625 0.40625 6.890625 0.078125 5.515625 -0.578125 C 4.140625 -1.234375 3.097656 -2.117188 2.390625 -3.234375 C 1.691406 -4.359375 1.34375 -5.640625 1.34375 -7.078125 C 1.34375 -9.378906 2.222656 -11.160156 3.984375 -12.421875 C 5.742188 -13.691406 8.460938 -14.328125 12.140625 -14.328125 L 16.984375 -14.328125 C 16.828125 -16.898438 15.109375 -18.1875 11.828125 -18.1875 C 10.660156 -18.1875 9.476562 -18 8.28125 -17.625 C 7.09375 -17.25 6.078125 -16.734375 5.234375 -16.078125 L 2.375 -21.859375 C 3.71875 -22.753906 5.351562 -23.445312 7.28125 -23.9375 C 9.207031 -24.4375 11.140625 -24.6875 13.078125 -24.6875 Z M 12.765625 -4.96875 C 13.753906 -4.96875 14.617188 -5.207031 15.359375 -5.6875 C 16.109375 -6.164062 16.648438 -6.867188 16.984375 -7.796875 L 16.984375 -9.90625 L 13.3125 -9.90625 C 10.832031 -9.90625 9.59375 -9.082031 9.59375 -7.4375 C 9.59375 -6.6875 9.875 -6.085938 10.4375 -5.640625 C 11 -5.191406 11.773438 -4.96875 12.765625 -4.96875 Z M 12.765625 -4.96875 "/></g></g></g><g fill="#000000" fill-opacity="1"><g transform="translate(99.86474, 68.179897)"><g><path d="M 10.84375 -21.375 C 11.707031 -22.476562 12.832031 -23.304688 14.21875 -23.859375 C 15.613281 -24.410156 17.207031 -24.6875 19 -24.6875 L 19 -17.015625 C 18.21875 -17.109375 17.570312 -17.15625 17.0625 -17.15625 C 15.238281 -17.15625 13.8125 -16.660156 12.78125 -15.671875 C 11.757812 -14.691406 11.25 -13.1875 11.25 -11.15625 L 11.25 0 L 2.734375 0 L 2.734375 -24.28125 L 10.84375 -24.28125 Z M 10.84375 -21.375 "/></g></g></g><g fill="#000000" fill-opacity="1"><g transform="translate(116.302547, 68.179897)"><g><path d="M 13.75 -8.515625 L 11.25 -5.953125 L 11.25 0 L 2.734375 0 L 2.734375 -33.234375 L 11.25 -33.234375 L 11.25 -15.8125 L 19.9375 -24.28125 L 30.015625 -24.28125 L 19.9375 -13.890625 L 30.859375 0 L 20.5625 0 Z M 13.75 -8.515625 "/></g></g></g><g fill="#000000" fill-opacity="1"><g transform="translate(143.624239, 68.179897)"><g><path d="M 27.546875 -12.09375 C 27.546875 -12.03125 27.503906 -11.328125 27.421875 -9.984375 L 9.765625 -9.984375 C 10.117188 -8.734375 10.8125 -7.769531 11.84375 -7.09375 C 12.875 -6.425781 14.164062 -6.09375 15.71875 -6.09375 C 16.882812 -6.09375 17.894531 -6.253906 18.75 -6.578125 C 19.601562 -6.910156 20.460938 -7.453125 21.328125 -8.203125 L 25.796875 -3.53125 C 23.441406 -0.90625 19.992188 0.40625 15.453125 0.40625 C 12.617188 0.40625 10.125 -0.128906 7.96875 -1.203125 C 5.820312 -2.285156 4.15625 -3.78125 2.96875 -5.6875 C 1.789062 -7.601562 1.203125 -9.769531 1.203125 -12.1875 C 1.203125 -14.570312 1.773438 -16.710938 2.921875 -18.609375 C 4.078125 -20.503906 5.671875 -21.988281 7.703125 -23.0625 C 9.734375 -24.144531 12.019531 -24.6875 14.5625 -24.6875 C 16.976562 -24.6875 19.171875 -24.1875 21.140625 -23.1875 C 23.109375 -22.1875 24.664062 -20.738281 25.8125 -18.84375 C 26.96875 -16.945312 27.546875 -14.695312 27.546875 -12.09375 Z M 14.609375 -18.640625 C 13.285156 -18.640625 12.179688 -18.265625 11.296875 -17.515625 C 10.421875 -16.765625 9.863281 -15.75 9.625 -14.46875 L 19.578125 -14.46875 C 19.335938 -15.75 18.773438 -16.765625 17.890625 -17.515625 C 17.015625 -18.265625 15.921875 -18.640625 14.609375 -18.640625 Z M 14.609375 -18.640625 "/></g></g></g><g fill="#000000" fill-opacity="1"><g transform="translate(168.975189, 68.179897)"><g><path d="M 19.484375 -0.984375 C 18.765625 -0.535156 17.890625 -0.191406 16.859375 0.046875 C 15.835938 0.285156 14.742188 0.40625 13.578125 0.40625 C 10.410156 0.40625 7.972656 -0.367188 6.265625 -1.921875 C 4.566406 -3.472656 3.71875 -5.789062 3.71875 -8.875 L 3.71875 -17.015625 L 0.171875 -17.015625 L 0.171875 -23.390625 L 3.71875 -23.390625 L 3.71875 -29.703125 L 12.234375 -29.703125 L 12.234375 -23.390625 L 17.78125 -23.390625 L 17.78125 -17.015625 L 12.234375 -17.015625 L 12.234375 -8.953125 C 12.234375 -8.085938 12.460938 -7.410156 12.921875 -6.921875 C 13.390625 -6.429688 14.007812 -6.1875 14.78125 -6.1875 C 15.769531 -6.1875 16.632812 -6.4375 17.375 -6.9375 Z M 19.484375 -0.984375 "/></g></g></g><g fill="#000000" fill-opacity="1"><g transform="translate(185.592158, 68.179897)"><g><path d="M 18.765625 0.625 C 15.484375 0.625 12.535156 -0.0664062 9.921875 -1.453125 C 7.304688 -2.835938 5.25 -4.769531 3.75 -7.25 C 2.257812 -9.726562 1.515625 -12.535156 1.515625 -15.671875 C 1.515625 -18.804688 2.257812 -21.613281 3.75 -24.09375 C 5.25 -26.570312 7.304688 -28.503906 9.921875 -29.890625 C 12.535156 -31.285156 15.484375 -31.984375 18.765625 -31.984375 C 21.640625 -31.984375 24.222656 -31.472656 26.515625 -30.453125 C 28.816406 -29.441406 30.726562 -27.984375 32.25 -26.078125 L 26.609375 -20.96875 C 24.578125 -23.414062 22.113281 -24.640625 19.21875 -24.640625 C 17.519531 -24.640625 16.003906 -24.265625 14.671875 -23.515625 C 13.335938 -22.773438 12.304688 -21.722656 11.578125 -20.359375 C 10.847656 -19.003906 10.484375 -17.441406 10.484375 -15.671875 C 10.484375 -13.910156 10.847656 -12.347656 11.578125 -10.984375 C 12.304688 -9.628906 13.335938 -8.578125 14.671875 -7.828125 C 16.003906 -7.085938 17.519531 -6.71875 19.21875 -6.71875 C 22.113281 -6.71875 24.578125 -7.941406 26.609375 -10.390625 L 32.25 -5.28125 C 30.726562 -3.375 28.816406 -1.910156 26.515625 -0.890625 C 24.222656 0.117188 21.640625 0.625 18.765625 0.625 Z M 18.765625 0.625 "/></g></g></g><g fill="#000000" fill-opacity="1"><g transform="translate(215.242917, 68.179897)"><g><path d="M 14.921875 0.40625 C 12.316406 0.40625 9.96875 -0.128906 7.875 -1.203125 C 5.789062 -2.285156 4.15625 -3.78125 2.96875 -5.6875 C 1.789062 -7.601562 1.203125 -9.769531 1.203125 -12.1875 C 1.203125 -14.570312 1.789062 -16.71875 2.96875 -18.625 C 4.15625 -20.539062 5.785156 -22.03125 7.859375 -23.09375 C 9.929688 -24.15625 12.285156 -24.6875 14.921875 -24.6875 C 17.546875 -24.6875 19.898438 -24.15625 21.984375 -23.09375 C 24.078125 -22.03125 25.707031 -20.550781 26.875 -18.65625 C 28.039062 -16.757812 28.625 -14.601562 28.625 -12.1875 C 28.625 -9.769531 28.039062 -7.601562 26.875 -5.6875 C 25.707031 -3.78125 24.078125 -2.285156 21.984375 -1.203125 C 19.898438 -0.128906 17.546875 0.40625 14.921875 0.40625 Z M 14.921875 -6.359375 C 16.410156 -6.359375 17.632812 -6.875 18.59375 -7.90625 C 19.550781 -8.9375 20.03125 -10.363281 20.03125 -12.1875 C 20.03125 -13.976562 19.550781 -15.378906 18.59375 -16.390625 C 17.632812 -17.410156 16.410156 -17.921875 14.921875 -17.921875 C 13.421875 -17.921875 12.191406 -17.410156 11.234375 -16.390625 C 10.285156 -15.378906 9.8125 -13.976562 9.8125 -12.1875 C 9.8125 -10.363281 10.285156 -8.9375 11.234375 -7.90625 C 12.191406 -6.875 13.421875 -6.359375 14.921875 -6.359375 Z M 14.921875 -6.359375 "/></g></g></g><g fill="#000000" fill-opacity="1"><g transform="translate(241.668811, 68.179897)"><g><path d="M 18.546875 -24.6875 C 21.566406 -24.6875 23.992188 -23.789062 25.828125 -22 C 27.660156 -20.207031 28.578125 -17.503906 28.578125 -13.890625 L 28.578125 0 L 20.0625 0 L 20.0625 -12.5 C 20.0625 -15.8125 18.734375 -17.46875 16.078125 -17.46875 C 14.617188 -17.46875 13.445312 -16.988281 12.5625 -16.03125 C 11.6875 -15.082031 11.25 -13.648438 11.25 -11.734375 L 11.25 0 L 2.734375 0 L 2.734375 -24.28125 L 10.84375 -24.28125 L 10.84375 -21.640625 C 11.800781 -22.617188 12.9375 -23.367188 14.25 -23.890625 C 15.5625 -24.421875 16.992188 -24.6875 18.546875 -24.6875 Z M 18.546875 -24.6875 "/></g></g></g><g fill="#000000" fill-opacity="1"><g transform="translate(269.438398, 68.179897)"><g><path d="M 18.546875 -24.6875 C 21.566406 -24.6875 23.992188 -23.789062 25.828125 -22 C 27.660156 -20.207031 28.578125 -17.503906 28.578125 -13.890625 L 28.578125 0 L 20.0625 0 L 20.0625 -12.5 C 20.0625 -15.8125 18.734375 -17.46875 16.078125 -17.46875 C 14.617188 -17.46875 13.445312 -16.988281 12.5625 -16.03125 C 11.6875 -15.082031 11.25 -13.648438 11.25 -11.734375 L 11.25 0 L 2.734375 0 L 2.734375 -24.28125 L 10.84375 -24.28125 L 10.84375 -21.640625 C 11.800781 -22.617188 12.9375 -23.367188 14.25 -23.890625 C 15.5625 -24.421875 16.992188 -24.6875 18.546875 -24.6875 Z M 18.546875 -24.6875 "/></g></g></g><g fill="#000000" fill-opacity="1"><g transform="translate(297.207986, 68.179897)"><g><path d="M 27.546875 -12.09375 C 27.546875 -12.03125 27.503906 -11.328125 27.421875 -9.984375 L 9.765625 -9.984375 C 10.117188 -8.734375 10.8125 -7.769531 11.84375 -7.09375 C 12.875 -6.425781 14.164062 -6.09375 15.71875 -6.09375 C 16.882812 -6.09375 17.894531 -6.253906 18.75 -6.578125 C 19.601562 -6.910156 20.460938 -7.453125 21.328125 -8.203125 L 25.796875 -3.53125 C 23.441406 -0.90625 19.992188 0.40625 15.453125 0.40625 C 12.617188 0.40625 10.125 -0.128906 7.96875 -1.203125 C 5.820312 -2.285156 4.15625 -3.78125 2.96875 -5.6875 C 1.789062 -7.601562 1.203125 -9.769531 1.203125 -12.1875 C 1.203125 -14.570312 1.773438 -16.710938 2.921875 -18.609375 C 4.078125 -20.503906 5.671875 -21.988281 7.703125 -23.0625 C 9.734375 -24.144531 12.019531 -24.6875 14.5625 -24.6875 C 16.976562 -24.6875 19.171875 -24.1875 21.140625 -23.1875 C 23.109375 -22.1875 24.664062 -20.738281 25.8125 -18.84375 C 26.96875 -16.945312 27.546875 -14.695312 27.546875 -12.09375 Z M 14.609375 -18.640625 C 13.285156 -18.640625 12.179688 -18.265625 11.296875 -17.515625 C 10.421875 -16.765625 9.863281 -15.75 9.625 -14.46875 L 19.578125 -14.46875 C 19.335938 -15.75 18.773438 -16.765625 17.890625 -17.515625 C 17.015625 -18.265625 15.921875 -18.640625 14.609375 -18.640625 Z M 14.609375 -18.640625 "/></g></g></g><g fill="#000000" fill-opacity="1"><g transform="translate(322.558936, 68.179897)"><g><path d="M 15.140625 0.40625 C 12.453125 0.40625 10.046875 -0.128906 7.921875 -1.203125 C 5.804688 -2.285156 4.15625 -3.78125 2.96875 -5.6875 C 1.789062 -7.601562 1.203125 -9.769531 1.203125 -12.1875 C 1.203125 -14.601562 1.789062 -16.757812 2.96875 -18.65625 C 4.15625 -20.550781 5.804688 -22.03125 7.921875 -23.09375 C 10.046875 -24.15625 12.453125 -24.6875 15.140625 -24.6875 C 17.890625 -24.6875 20.265625 -24.09375 22.265625 -22.90625 C 24.265625 -21.726562 25.679688 -20.097656 26.515625 -18.015625 L 19.9375 -14.65625 C 18.832031 -16.832031 17.21875 -17.921875 15.09375 -17.921875 C 13.570312 -17.921875 12.3125 -17.410156 11.3125 -16.390625 C 10.3125 -15.378906 9.8125 -13.976562 9.8125 -12.1875 C 9.8125 -10.363281 10.3125 -8.9375 11.3125 -7.90625 C 12.3125 -6.875 13.570312 -6.359375 15.09375 -6.359375 C 17.21875 -6.359375 18.832031 -7.445312 19.9375 -9.625 L 26.515625 -6.265625 C 25.679688 -4.179688 24.265625 -2.546875 22.265625 -1.359375 C 20.265625 -0.179688 17.890625 0.40625 15.140625 0.40625 Z M 15.140625 0.40625 "/></g></g></g><g fill="#000000" fill-opacity="1"><g transform="translate(346.163091, 68.179897)"><g><path d="M 19.484375 -0.984375 C 18.765625 -0.535156 17.890625 -0.191406 16.859375 0.046875 C 15.835938 0.285156 14.742188 0.40625 13.578125 0.40625 C 10.410156 0.40625 7.972656 -0.367188 6.265625 -1.921875 C 4.566406 -3.472656 3.71875 -5.789062 3.71875 -8.875 L 3.71875 -17.015625 L 0.171875 -17.015625 L 0.171875 -23.390625 L 3.71875 -23.390625 L 3.71875 -29.703125 L 12.234375 -29.703125 L 12.234375 -23.390625 L 17.78125 -23.390625 L 17.78125 -17.015625 L 12.234375 -17.015625 L 12.234375 -8.953125 C 12.234375 -8.085938 12.460938 -7.410156 12.921875 -6.921875 C 13.390625 -6.429688 14.007812 -6.1875 14.78125 -6.1875 C 15.769531 -6.1875 16.632812 -6.4375 17.375 -6.9375 Z M 19.484375 -0.984375 "/></g></g></g><g clip-path="url(#529d8fe2bd)"><path fill="#000000" d="M 204.25 15.90625 C 203.003906 16.941406 201.859375 18.054688 200.8125 19.242188 C 201.316406 18.722656 201.835938 18.199219 202.375 17.671875 C 202.847656 17.207031 203.472656 16.621094 204.25 15.90625 M 199.179688 16.890625 C 198.335938 17.652344 197.589844 18.371094 196.933594 19.058594 C 196.28125 19.742188 195.695312 20.402344 195.183594 21.039062 C 196.347656 19.714844 197.679688 18.332031 199.179688 16.890625 M 286.878906 41.5625 L 286.855469 41.785156 L 286.851562 42.011719 L 286.863281 42.238281 L 286.894531 42.464844 L 286.949219 42.699219 L 287.027344 42.9375 L 287.128906 43.179688 L 287.257812 43.429688 L 287.417969 43.683594 L 287.613281 43.949219 L 287.839844 44.21875 L 288.101562 44.496094 C 287.753906 43.625 287.347656 42.644531 286.878906 41.5625 M 237.871094 0.65625 L 237.164062 0.660156 C 222.460938 1.300781 209.808594 6.703125 199.210938 16.863281 C 210.34375 7.054688 222.832031 2.007812 236.6875 1.71875 C 243.902344 1.769531 250.050781 2.863281 255.125 5.003906 C 262.71875 8.058594 268.789062 11.734375 273.332031 16.023438 C 276.640625 19.140625 279.101562 21.90625 280.722656 24.324219 C 276.652344 18.5625 270.5 13.585938 262.261719 9.398438 C 253.304688 5.261719 244.558594 3.191406 236.027344 3.195312 C 224.492188 2.964844 213.902344 7.199219 204.265625 15.890625 C 214.21875 7.910156 225.339844 4.367188 237.636719 5.269531 C 251.929688 6.570312 263.925781 11.714844 273.621094 20.699219 C 278.902344 25.714844 283.324219 32.667969 286.878906 41.558594 C 287.5625 39.300781 287.757812 37.941406 287.460938 37.488281 C 288.875 41.742188 289.714844 46.15625 289.976562 50.734375 C 290.933594 63.675781 286.902344 75.875 277.890625 87.328125 C 292.679688 70.539062 295.671875 51.824219 286.875 31.1875 C 282.082031 21.335938 275.792969 14.136719 268 9.585938 C 258.253906 3.726562 248.210938 0.75 237.871094 0.65625 M 277.875 87.34375 L 277.503906 87.746094 C 276.378906 88.964844 275.179688 90.199219 273.894531 91.445312 L 274.765625 90.746094 L 274.953125 90.585938 C 275.007812 90.546875 275.226562 90.335938 275.613281 89.957031 C 275.933594 89.628906 276.285156 89.246094 276.667969 88.804688 L 277.253906 88.109375 L 277.875 87.34375 M 200.792969 19.261719 L 199.878906 20.230469 C 189.472656 31.953125 184.835938 45.113281 185.96875 59.707031 C 184.292969 53.433594 184.382812 46.867188 186.230469 40.015625 C 188.015625 32.765625 190.992188 26.449219 195.164062 21.058594 C 188.257812 29.027344 184.464844 39.226562 183.792969 51.664062 C 183.773438 53.90625 184.144531 56.714844 184.910156 60.09375 C 187.605469 69.707031 189.179688 74.808594 189.640625 75.402344 C 192.613281 82.199219 196.109375 87.480469 200.136719 91.246094 C 205.28125 96.082031 210.941406 99.710938 217.128906 102.132812 C 223.371094 104.738281 229.28125 105.988281 234.867188 105.886719 C 242.859375 105.714844 250.367188 104.515625 257.398438 102.292969 C 262.503906 100.464844 268 96.851562 273.882812 91.453125 C 267.792969 96.332031 262.558594 99.453125 258.175781 100.816406 C 249.972656 103.082031 242.402344 104.160156 235.460938 104.050781 C 231.109375 104.355469 224.910156 102.765625 216.863281 99.285156 C 210.988281 96.703125 206.132812 93.511719 202.304688 89.71875 C 199.246094 86.632812 196.917969 83.753906 195.328125 81.082031 C 200.066406 86.800781 206.941406 92.253906 215.953125 97.449219 C 220.285156 99.875 224.597656 101.613281 228.894531 102.664062 C 229.996094 102.917969 230.621094 103.007812 230.765625 102.9375 C 230.84375 102.914062 230.835938 102.859375 230.742188 102.773438 C 230.933594 102.90625 231.214844 102.78125 231.59375 102.402344 C 231.914062 102.011719 232.125 101.628906 232.222656 101.253906 C 226.535156 101.121094 217.773438 97.21875 205.9375 89.554688 C 199.183594 84.488281 194.097656 78.539062 190.6875 71.71875 C 187.453125 63.949219 186.757812 54.730469 188.597656 44.058594 C 189.945312 35.773438 194.011719 27.507812 200.792969 19.261719 " fill-opacity="1" fill-rule="nonzero"/></g><g clip-path="url(#62ceb2faf6)"><path fill="#000000" d="M 132.078125 15.90625 C 130.832031 16.941406 129.6875 18.054688 128.640625 19.242188 C 129.144531 18.722656 129.664062 18.199219 130.203125 17.671875 C 130.675781 17.207031 131.300781 16.621094 132.078125 15.90625 M 127.011719 16.890625 C 126.164062 17.652344 125.417969 18.371094 124.761719 19.058594 C 124.109375 19.742188 123.523438 20.402344 123.011719 21.039062 C 124.175781 19.714844 125.507812 18.332031 127.011719 16.890625 M 214.707031 41.5625 L 214.6875 41.785156 L 214.679688 42.011719 L 214.691406 42.238281 L 214.722656 42.464844 L 214.777344 42.699219 L 214.855469 42.9375 L 214.957031 43.179688 L 215.085938 43.429688 L 215.25 43.683594 L 215.441406 43.949219 L 215.667969 44.21875 L 215.929688 44.496094 C 215.582031 43.625 215.175781 42.644531 214.707031 41.5625 M 165.699219 0.65625 L 164.996094 0.660156 C 150.289062 1.300781 137.640625 6.703125 127.039062 16.863281 C 138.171875 7.054688 150.664062 2.007812 164.515625 1.71875 C 171.730469 1.769531 177.878906 2.863281 182.957031 5.003906 C 190.546875 8.058594 196.617188 11.734375 201.160156 16.023438 C 204.46875 19.140625 206.933594 21.90625 208.550781 24.324219 C 204.480469 18.5625 198.328125 13.585938 190.089844 9.398438 C 181.132812 5.261719 172.390625 3.191406 163.859375 3.195312 C 152.320312 2.964844 141.734375 7.199219 132.097656 15.890625 C 142.046875 7.910156 153.171875 4.367188 165.464844 5.269531 C 179.757812 6.570312 191.753906 11.714844 201.449219 20.699219 C 206.730469 25.714844 211.152344 32.667969 214.707031 41.558594 C 215.394531 39.300781 215.585938 37.941406 215.292969 37.488281 C 216.703125 41.742188 217.542969 46.15625 217.804688 50.734375 C 218.761719 63.675781 214.734375 75.875 205.71875 87.328125 C 220.507812 70.539062 223.503906 51.824219 214.703125 31.1875 C 209.910156 21.335938 203.621094 14.136719 195.828125 9.585938 C 186.085938 3.726562 176.042969 0.75 165.699219 0.65625 M 205.703125 87.34375 L 205.332031 87.746094 C 204.210938 88.964844 203.007812 90.199219 201.722656 91.445312 L 202.59375 90.746094 L 202.78125 90.585938 C 202.835938 90.546875 203.054688 90.335938 203.441406 89.957031 C 203.761719 89.628906 204.113281 89.246094 204.496094 88.804688 L 205.085938 88.109375 L 205.703125 87.34375 M 128.621094 19.261719 L 127.707031 20.230469 C 117.304688 31.953125 112.667969 45.113281 113.796875 59.707031 C 112.125 53.433594 112.210938 46.867188 114.058594 40.015625 C 115.84375 32.765625 118.820312 26.449219 122.992188 21.058594 C 116.085938 29.027344 112.296875 39.226562 111.621094 51.664062 C 111.601562 53.90625 111.972656 56.714844 112.738281 60.09375 C 115.433594 69.707031 117.011719 74.808594 117.46875 75.402344 C 120.441406 82.199219 123.941406 87.480469 127.964844 91.246094 C 133.109375 96.082031 138.773438 99.710938 144.957031 102.132812 C 151.199219 104.738281 157.113281 105.988281 162.699219 105.886719 C 170.6875 105.714844 178.195312 104.515625 185.226562 102.292969 C 190.332031 100.464844 195.828125 96.851562 201.710938 91.453125 C 195.625 96.332031 190.386719 99.453125 186.003906 100.816406 C 177.800781 103.082031 170.230469 104.160156 163.289062 104.050781 C 158.9375 104.355469 152.738281 102.765625 144.691406 99.285156 C 138.816406 96.703125 133.964844 93.511719 130.132812 89.71875 C 127.074219 86.632812 124.75 83.753906 123.15625 81.082031 C 127.898438 86.800781 134.773438 92.253906 143.785156 97.449219 C 148.113281 99.875 152.429688 101.613281 156.722656 102.664062 C 157.828125 102.917969 158.449219 103.007812 158.59375 102.9375 C 158.671875 102.914062 158.664062 102.859375 158.570312 102.773438 C 158.761719 102.90625 159.046875 102.78125 159.425781 102.402344 C 159.742188 102.011719 159.953125 101.628906 160.050781 101.253906 C 154.363281 101.121094 145.601562 97.21875 133.765625 89.554688 C 127.011719 84.488281 121.925781 78.539062 118.515625 71.71875 C 115.285156 63.949219 114.585938 54.730469 116.425781 44.058594 C 117.777344 35.773438 121.839844 27.507812 128.621094 19.261719 " fill-opacity="1" fill-rule="nonzero"/></g></svg>