<svg xmlns="http://www.w3.org/2000/svg" xmlns:xlink="http://www.w3.org/1999/xlink" width="1080" zoomAndPan="magnify" viewBox="0 0 810 809.999993" height="1080" preserveAspectRatio="xMidYMid meet" version="1.0"><defs><g/><clipPath id="2cea2bf362"><path d="M 81.167969 184 L 710.785156 184 L 710.785156 635.765625 L 81.167969 635.765625 Z M 81.167969 184 " clip-rule="nonzero"/></clipPath><clipPath id="f921696218"><path d="M 102.242188 174.554688 L 728.78125 174.554688 L 728.78125 613 L 102.242188 613 Z M 102.242188 174.554688 " clip-rule="nonzero"/></clipPath><clipPath id="eb0831247b"><path d="M 0 542 L 203.25 542 L 203.25 810 L 0 810 Z M 0 542 " clip-rule="nonzero"/></clipPath><clipPath id="0ad4f64ff7"><path d="M 606.460938 0 L 809.6875 0 L 809.6875 268 L 606.460938 268 Z M 606.460938 0 " clip-rule="nonzero"/></clipPath><clipPath id="f79b0a1aac"><path d="M 685 0 L 809.6875 0 L 809.6875 324 L 685 324 Z M 685 0 " clip-rule="nonzero"/></clipPath></defs><rect x="-81" width="972" fill="#ffffff" y="-80.999999" height="971.999992" fill-opacity="1"/><rect x="-81" width="972" fill="#fffbe1" y="-80.999999" height="971.999992" fill-opacity="1"/><g clip-path="url(#2cea2bf362)"><path fill="#fee031" d="M 658.046875 487.34375 L 709.808594 570.449219 C 712.027344 574.011719 709.015625 578.535156 704.875 577.855469 L 632.28125 565.988281 C 626.605469 589.714844 606.191406 607.007812 581.871094 608.679688 L 190.738281 635.679688 C 172.839844 636.914062 156.695312 624.957031 152.636719 607.472656 L 82.273438 304.175781 C 76.640625 279.890625 93.128906 256.027344 117.828125 252.734375 L 624.996094 185.109375 C 668.949219 179.25 705.511719 218.613281 696.46875 262.0625 L 654.136719 465.324219 C 652.5625 472.894531 653.960938 480.78125 658.046875 487.34375 " fill-opacity="1" fill-rule="nonzero"/></g><g clip-path="url(#f921696218)"><path fill="#333333" d="M 592.558594 582.460938 C 609.820312 581.84375 622.230469 571.269531 629.449219 551.050781 C 630.1875 548.988281 629.109375 546.722656 627.058594 545.992188 C 625 545.257812 622.742188 546.332031 622.003906 548.386719 C 615.902344 565.5 606.179688 574.058594 592.273438 574.554688 C 571.394531 575.296875 535.25 575.308594 534.890625 575.308594 C 532.703125 575.308594 530.9375 577.078125 530.9375 579.261719 C 530.9375 581.445312 532.703125 583.21875 534.890625 583.21875 C 535.25 583.21875 571.535156 583.207031 592.558594 582.460938 Z M 128.929688 283.164062 C 131.09375 282.855469 132.59375 280.851562 132.285156 278.691406 C 129.605469 259.929688 136.984375 251.269531 137.355469 250.847656 C 138.808594 249.242188 138.703125 246.757812 137.105469 245.28125 C 135.507812 243.804688 133.007812 243.902344 131.523438 245.507812 C 131.101562 245.964844 121.203125 257 124.460938 279.8125 C 124.742188 281.785156 126.429688 283.207031 128.371094 283.207031 C 128.554688 283.207031 128.742188 283.191406 128.929688 283.164062 Z M 246.636719 586.082031 C 246.636719 583.898438 244.863281 582.125 242.683594 582.125 L 207.859375 582.125 C 194.496094 582.125 187.289062 575.863281 184.480469 561.820312 C 181.519531 547.011719 177.761719 513.253906 177.71875 512.914062 C 177.480469 510.746094 175.53125 509.179688 173.355469 509.421875 C 171.191406 509.664062 169.625 511.617188 169.867188 513.789062 C 170.023438 515.191406 173.707031 548.226562 176.730469 563.371094 C 180.265625 581.066406 190.742188 590.035156 207.859375 590.035156 L 242.683594 590.035156 C 244.863281 590.035156 246.636719 588.269531 246.636719 586.082031 Z M 660.640625 182.464844 C 658.84375 182.464844 657.042969 182.542969 655.222656 182.695312 L 145.484375 226.902344 C 134.761719 227.832031 124.871094 233.277344 118.347656 241.847656 C 111.828125 250.414062 109.203125 261.402344 111.152344 271.996094 L 167.5 578.207031 C 170.414062 594.042969 184.179688 605.238281 200.285156 604.902344 L 592.25 595.941406 C 615.011719 595.421875 634.542969 580.363281 640.855469 558.46875 L 641.875 554.9375 L 717.445312 570.894531 C 717.835938 570.976562 718.15625 570.859375 718.386719 570.535156 C 718.625 570.214844 718.644531 569.875 718.449219 569.527344 L 670.566406 484.128906 C 666.265625 476.460938 665.101562 467.546875 667.289062 459.03125 L 718.917969 257.933594 C 723.855469 238.699219 719.328125 218.988281 706.507812 203.839844 C 694.855469 190.082031 678.375 182.464844 660.640625 182.464844 Z M 199.515625 612.820312 C 179.9375 612.820312 163.292969 599.003906 159.726562 579.640625 L 103.378906 273.425781 C 101.027344 260.648438 104.191406 247.386719 112.066406 237.050781 C 119.933594 226.71875 131.863281 220.148438 144.804688 219.019531 L 654.542969 174.816406 C 676.894531 172.882812 698.03125 181.59375 712.535156 198.726562 C 727.039062 215.859375 732.15625 238.15625 726.574219 259.898438 L 674.945312 460.996094 C 673.265625 467.53125 674.15625 474.371094 677.457031 480.257812 L 725.34375 565.660156 C 727.0625 568.722656 726.835938 572.382812 724.757812 575.222656 C 722.675781 578.054688 719.242188 579.359375 715.8125 578.636719 L 647.320312 564.171875 C 639.046875 587.492188 617.429688 603.28125 592.429688 603.851562 L 200.464844 612.8125 C 200.152344 612.816406 199.832031 612.820312 199.515625 612.820312 " fill-opacity="1" fill-rule="nonzero"/></g><g fill="#403d3d" fill-opacity="1"><g transform="translate(205.137454, 391.069974)"><g><path d="M 34.132812 -80.164062 C 33.535156 -80.121094 32.335938 -80.148438 31.382812 -80.078125 C 17.6875 -79.054688 3.59375 -65.664062 -1.121094 -48.664062 C -7.15625 -28.449219 -1.660156 -7.78125 12.765625 -2.273438 C 25.835938 2.738281 38.5 -2.519531 45.488281 -11.542969 C 50.742188 -18.164062 49.472656 -23.941406 46.351562 -25.621094 C 43.746094 -26.863281 40.691406 -26.039062 39.425781 -23.789062 C 35.65625 -14.882812 30.039062 -9.910156 23.441406 -11.691406 C 18.632812 -13.488281 13.613281 -21.378906 15.167969 -37.425781 C 17.625 -59.046875 27.972656 -69.644531 34.523438 -70.132812 C 38.453125 -70.425781 40.699219 -67.601562 41.125 -65.117188 C 41.679688 -62.523438 40.953125 -57.796875 37.6875 -55.039062 C 36.015625 -53.355469 37.570312 -47.003906 43.996094 -45.929688 C 49.941406 -44.933594 54.234375 -48.371094 55.445312 -53.011719 C 57.941406 -62.898438 53.503906 -78.976562 34.132812 -80.164062 Z M 34.132812 -80.164062 "/></g></g></g><g fill="#403d3d" fill-opacity="1"><g transform="translate(268.496608, 386.334044)"><g><path d="M 40.027344 -78.210938 C 38.179688 -78.910156 36 -79.226562 34.167969 -79.6875 C 33.324219 -79.746094 32.363281 -79.792969 31.410156 -79.722656 C 18.367188 -79.585938 4.839844 -68.273438 -0.933594 -50.953125 C -7.988281 -29.945312 -1.074219 -7.945312 14.46875 -1.917969 C 29.902344 4.234375 48.136719 -8.148438 55.3125 -29.167969 C 62.238281 -50.285156 55.449219 -72.175781 40.027344 -78.210938 Z M 33.882812 -24.210938 C 28.25 -11.453125 20.179688 -7.257812 16.375 -14.878906 C 12.324219 -22.601562 14.511719 -43.003906 20.257812 -55.890625 C 24.175781 -64.328125 28.976562 -69 32.917969 -69.175781 C 33.292969 -68.960938 34.136719 -68.90625 34.628906 -68.703125 C 35.863281 -68.195312 37.253906 -67.222656 38.128906 -65.132812 C 42.28125 -57.65625 39.984375 -37.125 33.882812 -24.210938 Z M 33.882812 -24.210938 "/></g></g></g><g fill="#403d3d" fill-opacity="1"><g transform="translate(334.47588, 381.402266)"><g><path d="M 57.53125 -81.195312 C 50.523438 -77.199219 40.648438 -47.472656 32.207031 -32.230469 C 28.496094 -41.773438 27.421875 -60.976562 23.238281 -70.488281 C 20.867188 -79.773438 3.640625 -77.886719 5.492188 -73.953125 C 8.335938 -67.9375 -7.503906 -12.253906 -6.824219 -4.761719 C -6.507812 -2.148438 -5.140625 0.144531 -1.597656 1.078125 C 4.035156 2.691406 12.644531 -0.707031 12.1875 -1.988281 C 10.367188 -7.121094 11.828125 -18.011719 14.277344 -28.496094 C 14.984375 -31.902344 15.449219 -35.289062 16.519531 -38.605469 C 18.507812 -26.414062 20.949219 -12.945312 26.957031 -11.117188 C 29.179688 -10.207031 31.542969 -10.621094 34.429688 -13.710938 C 37.523438 -17.175781 45.488281 -35.617188 52.296875 -50.261719 C 48.523438 -33.449219 43.699219 -14.644531 44.03125 -10.238281 C 44.574219 -7.761719 45.933594 -5.589844 49.367188 -4.527344 C 55.125 -2.804688 63.480469 -6.421875 63.152344 -7.59375 C 61.339844 -12.609375 62.53125 -22.28125 64.992188 -32.644531 C 68.421875 -47.632812 73.167969 -64.277344 74.457031 -71.082031 C 76.808594 -82.875 61.300781 -83.632812 57.53125 -81.195312 Z M 57.53125 -81.195312 "/></g></g></g><g fill="#403d3d" fill-opacity="1"><g transform="translate(414.508512, 375.420037)"><g><path d="M 41.359375 -79.625 C 36.15625 -75.523438 17.929688 -80.628906 11.0625 -77.960938 C 8.390625 -76.804688 6.722656 -75.121094 6.539062 -71.15625 C 6.488281 -65.402344 10.984375 -62.984375 12.367188 -63.6875 C 13.148438 -64.460938 14.679688 -64.816406 16.109375 -64.921875 C 14.042969 -50.875 7.523438 -25.953125 5.324219 -13.691406 C 2.082031 -13.808594 -0.777344 -13.597656 -2.621094 -12.621094 C -5.316406 -11.820312 -6.738281 -10.035156 -6.929688 -6.1875 C -6.851562 -0.328125 -2.121094 2.074219 -0.972656 1.390625 C 3.089844 -1.90625 17.113281 -0.199219 23.902344 -0.707031 C 38.066406 -1.886719 31.46875 -18.042969 27.964844 -15.265625 C 26.726562 -14.214844 24.863281 -13.476562 22.601562 -13.308594 C 22.960938 -18.125 23.96875 -23.828125 25.21875 -29.550781 C 28.398438 -43.085938 32.515625 -56.925781 33.867188 -64.453125 C 35.296875 -64.5625 36.378906 -64.523438 37.449219 -64.601562 C 51.386719 -65.644531 44.9375 -83.007812 41.359375 -79.625 Z M 41.359375 -79.625 "/></g></g></g><g fill="#403d3d" fill-opacity="1"><g transform="translate(465.958052, 371.574318)"><g><path d="M 44.800781 -78.445312 C 46.625 -74.871094 41.6875 -54.378906 37.492188 -36.816406 C 31.488281 -48.226562 25.964844 -64.460938 23.21875 -70.726562 C 20.507812 -79.746094 3.757812 -77.894531 5.492188 -73.953125 C 8.335938 -67.9375 -7.53125 -12.613281 -6.851562 -5.117188 C -6.515625 -2.269531 -5.148438 0.0273438 -1.605469 0.957031 C 4.023438 2.574219 12.632812 -0.824219 12.171875 -2.226562 C 10.359375 -7.242188 11.8125 -18.25 14.261719 -28.734375 C 15.222656 -33.476562 16.5 -38.84375 17.582031 -43.59375 C 17.738281 -43.125 17.890625 -42.660156 18.027344 -42.429688 C 26.53125 -26.417969 28.714844 -14.84375 32.457031 -8.054688 C 33.84375 -5.523438 35.242188 -4.429688 36.824219 -4.070312 C 37.0625 -4.089844 37.320312 -3.867188 37.4375 -3.875 C 43.070312 -2.261719 51.796875 -5.667969 51.230469 -6.824219 C 49.417969 -11.839844 50.734375 -21.519531 53.0625 -31.992188 C 56.503906 -46.863281 61.25 -63.507812 62.425781 -70.183594 C 65.453125 -84.183594 43.050781 -82.628906 44.800781 -78.445312 Z M 44.800781 -78.445312 "/></g></g></g><g fill="#403d3d" fill-opacity="1"><g transform="translate(533.961986, 366.491203)"><g><path d="M 35.203125 -80.246094 C 34.25 -80.171875 32.21875 -80.140625 31.382812 -80.078125 C 17.6875 -79.054688 3.59375 -65.664062 -1.105469 -48.425781 C -7.15625 -28.449219 -1.652344 -7.660156 12.785156 -2.035156 C 20.792969 0.960938 28.488281 -0.214844 34.707031 -3.550781 C 35.355469 -2.882812 36.347656 -2.476562 37.460938 -1.960938 C 43.265625 0.359375 51.472656 -3.609375 50.898438 -4.882812 C 47.378906 -11.925781 51.871094 -22.320312 53.269531 -29.253906 C 53.511719 -30.828125 53.394531 -32.378906 53.203125 -33.320312 C 53.160156 -33.917969 53.132812 -34.273438 52.976562 -34.742188 C 51.867188 -38.371094 49.574219 -40.238281 48.425781 -39.550781 C 38.914062 -37.042969 31.902344 -41.070312 27.167969 -40.359375 C 24.800781 -39.941406 23.214844 -38.746094 22.539062 -36.539062 C 20.597656 -32.082031 24.652344 -25.917969 25.578125 -26.347656 C 29.15625 -28.171875 33.398438 -29.085938 37.480469 -27.355469 C 37.597656 -27.363281 37.609375 -27.246094 37.609375 -27.246094 C 37.644531 -26.769531 37.679688 -26.292969 37.597656 -25.808594 C 35.875 -13.582031 29.1875 -10.085938 23.441406 -11.691406 C 18.671875 -13.011719 13.382812 -21.242188 15.1875 -37.1875 C 17.625 -59.046875 27.914062 -68.800781 34.523438 -70.132812 C 39.472656 -71.222656 42.808594 -68.238281 43.339844 -64.324219 C 43.820312 -61.125 42.878906 -57.703125 40.132812 -54.382812 C 38.597656 -52.472656 39.785156 -46.210938 46.210938 -45.136719 C 52.148438 -44.261719 56.433594 -47.816406 57.761719 -52.464844 C 60.734375 -63.949219 56.082031 -79.769531 35.203125 -80.246094 Z M 35.203125 -80.246094 "/></g></g></g><g fill="#403d3d" fill-opacity="1"><g transform="translate(279.001964, 502.13547)"><g><path d="M 43.328125 -80.492188 C 26.914062 -80.582031 3.757812 -73.101562 2.507812 -54.566406 C 2.164062 -47.953125 6.488281 -43.003906 11.417969 -39.539062 C 17.4375 -35.917969 22 -32.546875 26.914062 -29.320312 C 31.085938 -26.398438 36.167969 -22.464844 35.824219 -19.085938 C 35.667969 -14.761719 29.421875 -11.78125 22.085938 -12.191406 C 14.28125 -12.445312 10.421875 -15.992188 10.421875 -19.222656 C 10.589844 -21.753906 11.558594 -24.820312 14.339844 -27.660156 C 15.003906 -28.429688 14.878906 -30.097656 14.117188 -30.640625 C 9.226562 -35.183594 -2.289062 -30.609375 -4.890625 -22.152344 C -9.195312 -9.253906 1.621094 0.835938 21.085938 0.101562 C 39.832031 -0.703125 50.433594 -9.519531 51.628906 -17.511719 C 52.992188 -24.921875 49.816406 -30.554688 44.203125 -35.164062 C 36.933594 -41.089844 29.804688 -45.105469 26.238281 -47.953125 C 24.710938 -49.15625 19.578125 -52.128906 19.203125 -55.574219 C 17.996094 -62.070312 25.378906 -69.089844 35.730469 -69.984375 C 40.734375 -70.355469 42.8125 -66.558594 41.132812 -63.441406 C 38.832031 -58.957031 35.984375 -55.390625 37.386719 -51.0625 C 39.660156 -44.644531 51.023438 -41.664062 54.398438 -47.785156 C 52.332031 -54.574219 56.777344 -59.21875 58.398438 -67.964844 C 59.339844 -74.621094 54 -80.332031 43.328125 -80.492188 Z M 43.328125 -80.492188 "/></g></g></g><g fill="#403d3d" fill-opacity="1"><g transform="translate(344.028474, 497.274909)"><g><path d="M 40.027344 -78.210938 C 38.179688 -78.910156 36 -79.226562 34.167969 -79.6875 C 33.324219 -79.746094 32.363281 -79.792969 31.410156 -79.722656 C 18.367188 -79.585938 4.839844 -68.273438 -0.933594 -50.953125 C -7.988281 -29.945312 -1.074219 -7.945312 14.46875 -1.917969 C 29.902344 4.234375 48.136719 -8.148438 55.3125 -29.167969 C 62.238281 -50.285156 55.449219 -72.175781 40.027344 -78.210938 Z M 33.882812 -24.210938 C 28.25 -11.453125 20.179688 -7.257812 16.375 -14.878906 C 12.324219 -22.601562 14.511719 -43.003906 20.257812 -55.890625 C 24.175781 -64.328125 28.976562 -69 32.917969 -69.175781 C 33.292969 -68.960938 34.136719 -68.90625 34.628906 -68.703125 C 35.863281 -68.195312 37.253906 -67.222656 38.128906 -65.132812 C 42.28125 -57.65625 39.984375 -37.125 33.882812 -24.210938 Z M 33.882812 -24.210938 "/></g></g></g><g fill="#403d3d" fill-opacity="1"><g transform="translate(410.007746, 492.343132)"><g><path d="M 40.027344 -78.210938 C 38.179688 -78.910156 36 -79.226562 34.167969 -79.6875 C 33.324219 -79.746094 32.363281 -79.792969 31.410156 -79.722656 C 18.367188 -79.585938 4.839844 -68.273438 -0.933594 -50.953125 C -7.988281 -29.945312 -1.074219 -7.945312 14.46875 -1.917969 C 29.902344 4.234375 48.136719 -8.148438 55.3125 -29.167969 C 62.238281 -50.285156 55.449219 -72.175781 40.027344 -78.210938 Z M 33.882812 -24.210938 C 28.25 -11.453125 20.179688 -7.257812 16.375 -14.878906 C 12.324219 -22.601562 14.511719 -43.003906 20.257812 -55.890625 C 24.175781 -64.328125 28.976562 -69 32.917969 -69.175781 C 33.292969 -68.960938 34.136719 -68.90625 34.628906 -68.703125 C 35.863281 -68.195312 37.253906 -67.222656 38.128906 -65.132812 C 42.28125 -57.65625 39.984375 -37.125 33.882812 -24.210938 Z M 33.882812 -24.210938 "/></g></g></g><g fill="#403d3d" fill-opacity="1"><g transform="translate(475.987019, 487.411354)"><g><path d="M 44.800781 -78.445312 C 46.625 -74.871094 41.6875 -54.378906 37.492188 -36.816406 C 31.488281 -48.226562 25.964844 -64.460938 23.21875 -70.726562 C 20.507812 -79.746094 3.757812 -77.894531 5.492188 -73.953125 C 8.335938 -67.9375 -7.53125 -12.613281 -6.851562 -5.117188 C -6.515625 -2.269531 -5.148438 0.0273438 -1.605469 0.957031 C 4.023438 2.574219 12.632812 -0.824219 12.171875 -2.226562 C 10.359375 -7.242188 11.8125 -18.25 14.261719 -28.734375 C 15.222656 -33.476562 16.5 -38.84375 17.582031 -43.59375 C 17.738281 -43.125 17.890625 -42.660156 18.027344 -42.429688 C 26.53125 -26.417969 28.714844 -14.84375 32.457031 -8.054688 C 33.84375 -5.523438 35.242188 -4.429688 36.824219 -4.070312 C 37.0625 -4.089844 37.320312 -3.867188 37.4375 -3.875 C 43.070312 -2.261719 51.796875 -5.667969 51.230469 -6.824219 C 49.417969 -11.839844 50.734375 -21.519531 53.0625 -31.992188 C 56.503906 -46.863281 61.25 -63.507812 62.425781 -70.183594 C 65.453125 -84.183594 43.050781 -82.628906 44.800781 -78.445312 Z M 44.800781 -78.445312 "/></g></g></g><path fill="#fee031" d="M -125.316406 43.703125 C -125.703125 64.625 -118.757812 85.15625 -108.703125 103.503906 C -97.070312 124.734375 -81.03125 143.742188 -61.078125 157.449219 C -31.691406 177.636719 5.386719 185.480469 40.820312 181.515625 C 78.371094 177.316406 114.804688 159.683594 139.179688 130.804688 C 157.242188 109.402344 168.234375 78.085938 155.15625 53.316406 C 150.121094 43.777344 142.015625 36.167969 136.714844 26.777344 C 126.464844 8.621094 127.875 -13.511719 127.011719 -34.34375 C 126.148438 -55.175781 121.113281 -78.46875 103.496094 -89.617188 C 89.429688 -98.523438 71.511719 -97.039062 54.863281 -97.015625 C 29.34375 -96.984375 3.523438 -101.097656 -21.519531 -96.175781 C -74.058594 -85.847656 -124.378906 -7.128906 -125.316406 43.703125 " fill-opacity="1" fill-rule="nonzero"/><path fill="#403d3d" d="M 8.28125 182.164062 C 1.34375 182.164062 -5.855469 181.890625 -13.339844 181.34375 C -50.628906 178.625 -76.792969 169.648438 -95.675781 153.097656 C -117.964844 133.5625 -130.265625 101.289062 -128.578125 66.769531 C -127.242188 39.367188 -117.691406 10.015625 -99.378906 -22.957031 C -94.054688 -32.542969 -87.507812 -42.148438 -81.179688 -51.4375 C -70.164062 -67.59375 -58.78125 -84.296875 -52.855469 -102.105469 C -44.480469 -127.265625 -24.71875 -138.488281 -1.289062 -131.394531 C 20.039062 -124.941406 34.882812 -105.914062 44.195312 -92.164062 C 46.871094 -88.207031 49.5 -84.101562 52.042969 -80.132812 C 60.261719 -67.308594 68.757812 -54.046875 80.171875 -43.792969 C 88.085938 -36.683594 97.542969 -30.886719 106.683594 -25.28125 C 121.617188 -16.125 137.054688 -6.660156 145.851562 8.6875 C 155.621094 25.722656 154.867188 46.589844 153.457031 60.804688 C 150.605469 89.414062 142.605469 112.957031 129.671875 130.773438 C 115.175781 150.746094 92.230469 166.273438 65.0625 174.496094 C 48.125 179.625 29.40625 182.164062 8.28125 182.164062 Z M -14.796875 -131.75 C -33.945312 -131.75 -45.96875 -117.195312 -51.175781 -101.546875 C -57.179688 -83.507812 -68.636719 -66.699219 -79.714844 -50.441406 C -86.023438 -41.183594 -92.550781 -31.613281 -97.832031 -22.097656 C -116.011719 10.632812 -125.492188 39.730469 -126.8125 66.855469 C -128.472656 100.839844 -116.394531 132.585938 -94.511719 151.769531 C -75.929688 168.050781 -50.097656 176.886719 -13.210938 179.578125 C 16.824219 181.777344 42.257812 179.554688 64.550781 172.804688 C 91.351562 164.691406 113.96875 149.394531 128.242188 129.734375 C 140.992188 112.171875 148.882812 88.921875 151.695312 60.628906 C 153.085938 46.65625 153.832031 26.160156 144.316406 9.566406 C 135.746094 -5.386719 121.179688 -14.316406 105.757812 -23.773438 C 96.550781 -29.421875 87.023438 -35.261719 78.988281 -42.480469 C 67.398438 -52.890625 58.835938 -66.253906 50.554688 -79.179688 C 48.019531 -83.140625 45.394531 -87.234375 42.730469 -91.171875 C 33.570312 -104.695312 18.992188 -123.410156 -1.800781 -129.699219 C -6.449219 -131.109375 -10.78125 -131.75 -14.796875 -131.75 " fill-opacity="1" fill-rule="nonzero"/><path fill="#fee031" d="M 611.402344 817.660156 C 611.015625 838.582031 617.960938 859.109375 628.015625 877.457031 C 639.648438 898.6875 655.6875 917.695312 675.640625 931.402344 C 705.027344 951.589844 742.105469 959.433594 777.539062 955.472656 C 815.089844 951.273438 851.527344 933.636719 875.898438 904.761719 C 893.964844 883.355469 904.953125 852.039062 891.875 827.269531 C 886.84375 817.730469 878.738281 810.121094 873.4375 800.730469 C 863.183594 782.574219 864.59375 760.445312 863.730469 739.609375 C 862.867188 718.777344 857.832031 695.488281 840.214844 684.335938 C 826.148438 675.429688 808.230469 676.914062 791.582031 676.9375 C 766.0625 676.96875 740.242188 672.855469 715.203125 677.777344 C 662.660156 688.105469 612.339844 766.824219 611.402344 817.660156 " fill-opacity="1" fill-rule="nonzero"/><path fill="#403d3d" d="M 745.003906 956.117188 C 738.0625 956.117188 730.863281 955.84375 723.382812 955.300781 C 686.089844 952.578125 659.925781 943.601562 641.046875 927.050781 C 618.757812 907.515625 606.453125 875.246094 608.140625 840.722656 C 609.476562 813.320312 619.027344 783.96875 637.339844 751 C 642.664062 741.410156 649.210938 731.804688 655.542969 722.515625 C 666.554688 706.359375 677.9375 689.65625 683.863281 671.847656 C 692.238281 646.6875 712 635.464844 735.429688 642.558594 C 756.761719 649.011719 771.605469 668.042969 780.914062 681.792969 C 783.589844 685.75 786.222656 689.851562 788.765625 693.820312 C 796.980469 706.648438 805.480469 719.90625 816.890625 730.160156 C 824.808594 737.269531 834.261719 743.066406 843.402344 748.671875 C 858.335938 757.828125 873.777344 767.296875 882.570312 782.644531 C 892.339844 799.675781 891.589844 820.542969 890.175781 834.757812 C 887.328125 863.367188 879.324219 886.910156 866.394531 904.726562 C 851.894531 924.699219 828.949219 940.226562 801.78125 948.453125 C 784.84375 953.582031 766.125 956.117188 745.003906 956.117188 Z M 721.921875 642.203125 C 702.773438 642.203125 690.75 656.761719 685.542969 672.40625 C 679.539062 690.445312 668.082031 707.253906 657.003906 723.511719 C 650.695312 732.769531 644.171875 742.339844 638.886719 751.859375 C 620.707031 784.585938 611.226562 813.683594 609.90625 840.808594 C 608.246094 874.796875 620.324219 906.539062 642.210938 925.722656 C 660.789062 942.003906 686.621094 950.839844 723.507812 953.535156 C 753.542969 955.730469 778.976562 953.507812 801.273438 946.757812 C 828.070312 938.644531 850.691406 923.347656 864.960938 903.6875 C 877.710938 886.125 885.601562 862.875 888.417969 834.582031 C 889.804688 820.609375 890.550781 800.117188 881.039062 783.523438 C 872.464844 768.566406 857.902344 759.636719 842.480469 750.183594 C 833.269531 744.535156 823.746094 738.695312 815.707031 731.472656 C 804.117188 721.066406 795.554688 707.699219 787.277344 694.777344 C 784.738281 690.816406 782.113281 686.722656 779.449219 682.78125 C 770.292969 669.257812 755.710938 650.546875 734.921875 644.253906 C 730.269531 642.84375 725.941406 642.203125 721.921875 642.203125 " fill-opacity="1" fill-rule="nonzero"/><g clip-path="url(#eb0831247b)"><path fill="#fee031" d="M 203.25 809.804688 L 0 809.804688 L 0 542.632812 C 20.582031 549.816406 45.761719 575.253906 56.445312 601.851562 C 70.621094 636.933594 52.691406 656.671875 69.261719 680.101562 C 89.066406 708.125 123.4375 692.269531 157.808594 717.316406 C 185.0625 737.1875 203.183594 775.953125 203.25 809.804688 Z M 203.25 809.804688 " fill-opacity="1" fill-rule="nonzero"/></g><path fill="#333333" d="M 173.28125 716.734375 C 170.691406 713.433594 174.058594 702.238281 181.761719 701.523438 C 187.648438 700.941406 193.28125 706.898438 192.765625 710.84375 C 191.859375 716.800781 176.386719 720.8125 173.28125 716.734375 Z M 173.28125 716.734375 " fill-opacity="1" fill-rule="nonzero"/><path fill="#333333" d="M 174.1875 735.050781 C 174.121094 732.074219 180.855469 726.894531 185.644531 729.808594 C 189.332031 732.007812 190.109375 737.898438 188.101562 739.96875 C 185.0625 743.011719 174.316406 738.738281 174.1875 735.050781 Z M 174.1875 735.050781 " fill-opacity="1" fill-rule="nonzero"/><path fill="#333333" d="M 140.722656 755.4375 C 140.65625 752.460938 147.386719 747.285156 152.179688 750.195312 C 155.867188 752.394531 156.644531 758.285156 154.636719 760.355469 C 151.53125 763.464844 140.851562 759.191406 140.722656 755.4375 Z M 140.722656 755.4375 " fill-opacity="1" fill-rule="nonzero"/><path fill="#333333" d="M 140.914062 723.140625 C 141.5625 722.234375 144.800781 722.234375 145.640625 724.175781 C 146.222656 725.730469 145.125 727.671875 144.023438 727.800781 C 142.339844 728.125 140.074219 724.308594 140.914062 723.140625 Z M 140.914062 723.140625 " fill-opacity="1" fill-rule="nonzero"/><path fill="#333333" d="M 155.351562 729.03125 C 155.285156 727.15625 159.492188 723.984375 162.46875 725.730469 C 164.734375 727.089844 165.253906 730.777344 163.960938 732.074219 C 162.082031 734.015625 155.414062 731.363281 155.351562 729.03125 Z M 155.351562 729.03125 " fill-opacity="1" fill-rule="nonzero"/><path fill="#333333" d="M 126.15625 727.929688 C 126.09375 726.054688 130.300781 722.882812 133.277344 724.628906 C 135.542969 725.988281 136.0625 729.679688 134.765625 730.972656 C 132.890625 732.914062 126.222656 730.261719 126.15625 727.929688 Z M 126.15625 727.929688 " fill-opacity="1" fill-rule="nonzero"/><path fill="#333333" d="M 155.351562 768.1875 C 155.285156 766.3125 159.492188 763.140625 162.46875 764.886719 C 164.734375 766.246094 165.253906 769.9375 163.960938 771.230469 C 162.082031 773.171875 155.414062 770.519531 155.351562 768.1875 Z M 155.351562 768.1875 " fill-opacity="1" fill-rule="nonzero"/><path fill="#333333" d="M 138.585938 713.757812 C 138.519531 711.878906 142.726562 708.710938 145.707031 710.457031 C 147.972656 711.816406 148.488281 715.503906 147.195312 716.800781 C 145.316406 718.742188 138.648438 716.085938 138.585938 713.757812 Z M 138.585938 713.757812 " fill-opacity="1" fill-rule="nonzero"/><path fill="#333333" d="M 160.789062 705.601562 C 162.277344 705.148438 164.414062 708.320312 162.730469 711.363281 C 161.433594 713.691406 158.523438 714.859375 157.617188 714.015625 C 156.257812 712.722656 158.976562 706.183594 160.789062 705.601562 Z M 160.789062 705.601562 " fill-opacity="1" fill-rule="nonzero"/><path fill="#333333" d="M 168.75 741.652344 C 169.980469 743.078125 168.683594 748.1875 165.253906 748.707031 C 162.601562 749.09375 159.945312 746.570312 160.074219 744.757812 C 160.398438 742.039062 167.261719 739.90625 168.75 741.652344 Z M 168.75 741.652344 " fill-opacity="1" fill-rule="nonzero"/><path fill="#333333" d="M 178.328125 753.109375 C 179.558594 754.078125 178.199219 757.703125 174.769531 758.09375 C 172.113281 758.414062 169.460938 756.667969 169.65625 755.375 C 169.980469 753.496094 176.839844 751.878906 178.328125 753.109375 Z M 178.328125 753.109375 " fill-opacity="1" fill-rule="nonzero"/><path fill="#333333" d="M 144.152344 738.675781 C 145.382812 739.644531 144.023438 743.269531 140.59375 743.660156 C 137.9375 743.984375 135.285156 742.234375 135.476562 740.941406 C 135.800781 739.0625 142.664062 737.511719 144.152344 738.675781 Z M 144.152344 738.675781 " fill-opacity="1" fill-rule="nonzero"/><path fill="#333333" d="M 124.085938 809.804688 L 122.792969 809.804688 C 122.726562 800.226562 121.820312 790.839844 120.007812 781.714844 C 114.828125 755.695312 103.890625 737.964844 94.246094 722.300781 C 82.53125 703.335938 72.433594 686.960938 73.792969 660.878906 C 74.890625 639.910156 82.917969 627.289062 89.972656 616.15625 C 96.640625 605.671875 102.402344 596.609375 102.011719 582.632812 C 101.558594 566.449219 92.628906 550.207031 75.410156 534.347656 C 58.515625 518.6875 33.207031 503.023438 0 487.621094 L 0 486.195312 C 33.59375 501.730469 59.164062 517.585938 76.316406 533.441406 C 93.792969 549.558594 102.855469 566.125 103.308594 582.695312 C 103.695312 597.0625 97.546875 606.707031 91.074219 616.933594 C 84.082031 627.9375 76.1875 640.363281 75.085938 661.007812 C 73.726562 686.640625 83.757812 702.882812 95.347656 721.652344 C 105.054688 737.378906 116.058594 755.179688 121.300781 781.457031 C 123.113281 790.648438 124.019531 800.097656 124.085938 809.804688 Z M 124.085938 809.804688 " fill-opacity="1" fill-rule="nonzero"/><g clip-path="url(#0ad4f64ff7)"><path fill="#fee031" d="M 606.4375 0.195312 L 809.6875 0.195312 L 809.6875 267.367188 C 789.101562 260.183594 763.921875 234.746094 753.242188 208.148438 C 739.066406 173.066406 756.996094 153.328125 740.425781 129.898438 C 720.617188 101.875 686.246094 117.730469 651.875 92.683594 C 624.625 72.8125 606.5 34.046875 606.4375 0.195312 Z M 606.4375 0.195312 " fill-opacity="1" fill-rule="nonzero"/></g><path fill="#333333" d="M 636.40625 93.265625 C 638.996094 96.566406 635.628906 107.761719 627.925781 108.476562 C 622.035156 109.058594 616.402344 103.101562 616.921875 99.15625 C 617.828125 93.199219 633.296875 89.1875 636.40625 93.265625 Z M 636.40625 93.265625 " fill-opacity="1" fill-rule="nonzero"/><path fill="#333333" d="M 635.5 74.949219 C 635.5625 77.925781 628.832031 83.105469 624.042969 80.191406 C 620.351562 77.992188 619.574219 72.101562 621.582031 70.03125 C 624.625 66.988281 635.371094 71.261719 635.5 74.949219 Z M 635.5 74.949219 " fill-opacity="1" fill-rule="nonzero"/><path fill="#333333" d="M 668.964844 54.5625 C 669.027344 57.539062 662.296875 62.714844 657.507812 59.804688 C 653.816406 57.605469 653.039062 51.714844 655.046875 49.644531 C 658.15625 46.535156 668.835938 50.808594 668.964844 54.5625 Z M 668.964844 54.5625 " fill-opacity="1" fill-rule="nonzero"/><path fill="#333333" d="M 668.769531 86.859375 C 668.121094 87.765625 664.886719 87.765625 664.042969 85.824219 C 663.460938 84.269531 664.5625 82.328125 665.664062 82.199219 C 667.347656 81.875 669.613281 85.691406 668.769531 86.859375 Z M 668.769531 86.859375 " fill-opacity="1" fill-rule="nonzero"/><path fill="#333333" d="M 654.335938 80.96875 C 654.398438 82.84375 650.191406 86.015625 647.214844 84.269531 C 644.949219 82.910156 644.433594 79.222656 645.726562 77.925781 C 647.601562 75.984375 654.269531 78.636719 654.335938 80.96875 Z M 654.335938 80.96875 " fill-opacity="1" fill-rule="nonzero"/><path fill="#333333" d="M 683.527344 82.070312 C 683.59375 83.945312 679.386719 87.117188 676.40625 85.371094 C 674.140625 84.011719 673.625 80.320312 674.917969 79.027344 C 676.796875 77.085938 683.464844 79.738281 683.527344 82.070312 Z M 683.527344 82.070312 " fill-opacity="1" fill-rule="nonzero"/><path fill="#333333" d="M 654.335938 41.8125 C 654.398438 43.6875 650.191406 46.859375 647.214844 45.113281 C 644.949219 43.753906 644.433594 40.0625 645.726562 38.769531 C 647.601562 36.828125 654.269531 39.480469 654.335938 41.8125 Z M 654.335938 41.8125 " fill-opacity="1" fill-rule="nonzero"/><path fill="#333333" d="M 671.101562 96.242188 C 671.164062 98.121094 666.957031 101.289062 663.980469 99.542969 C 661.714844 98.183594 661.195312 94.496094 662.492188 93.199219 C 664.367188 91.257812 671.035156 93.914062 671.101562 96.242188 Z M 671.101562 96.242188 " fill-opacity="1" fill-rule="nonzero"/><path fill="#333333" d="M 648.898438 104.398438 C 647.410156 104.851562 645.273438 101.679688 646.957031 98.636719 C 648.25 96.308594 651.164062 95.140625 652.070312 95.984375 C 653.429688 97.277344 650.710938 103.816406 648.898438 104.398438 Z M 648.898438 104.398438 " fill-opacity="1" fill-rule="nonzero"/><path fill="#333333" d="M 640.9375 68.347656 C 639.707031 66.921875 641 61.8125 644.433594 61.292969 C 647.085938 60.90625 649.738281 63.429688 649.609375 65.242188 C 649.285156 67.960938 642.425781 70.09375 640.9375 68.347656 Z M 640.9375 68.347656 " fill-opacity="1" fill-rule="nonzero"/><path fill="#333333" d="M 631.355469 56.890625 C 630.125 55.921875 631.484375 52.296875 634.917969 51.90625 C 637.570312 51.585938 640.222656 53.332031 640.03125 54.625 C 639.707031 56.503906 632.84375 58.121094 631.355469 56.890625 Z M 631.355469 56.890625 " fill-opacity="1" fill-rule="nonzero"/><path fill="#333333" d="M 665.535156 71.324219 C 664.304688 70.355469 665.664062 66.730469 669.09375 66.339844 C 671.746094 66.015625 674.402344 67.765625 674.207031 69.058594 C 673.882812 70.9375 667.023438 72.488281 665.535156 71.324219 Z M 665.535156 71.324219 " fill-opacity="1" fill-rule="nonzero"/><g clip-path="url(#f79b0a1aac)"><path fill="#333333" d="M 685.597656 0.195312 L 686.894531 0.195312 C 686.957031 9.773438 687.863281 19.160156 689.675781 28.285156 C 694.855469 54.304688 705.796875 72.035156 715.441406 87.699219 C 727.15625 106.664062 737.253906 123.039062 735.894531 149.121094 C 734.792969 170.089844 726.765625 182.710938 719.710938 193.84375 C 713.042969 204.328125 707.285156 213.390625 707.671875 227.367188 C 708.125 243.550781 717.058594 259.792969 734.277344 275.652344 C 751.171875 291.3125 776.480469 306.976562 809.6875 322.378906 L 809.6875 323.804688 C 776.089844 308.269531 750.523438 292.414062 733.371094 276.558594 C 715.894531 260.441406 706.832031 243.875 706.378906 227.304688 C 705.988281 212.9375 712.136719 203.292969 718.613281 193.066406 C 725.601562 182.0625 733.5 169.636719 734.601562 148.992188 C 735.957031 123.359375 725.925781 107.117188 714.339844 88.347656 C 704.628906 72.621094 693.625 54.820312 688.382812 28.542969 C 686.570312 19.351562 685.664062 9.902344 685.597656 0.195312 Z M 685.597656 0.195312 " fill-opacity="1" fill-rule="nonzero"/></g><g fill="#403d3d" fill-opacity="1"><g transform="translate(286.151304, 689.881749)"><g><path d="M 14.011719 -22.972656 C 13.460938 -23.230469 12.804688 -23.375 12.253906 -23.558594 C 12 -23.59375 11.707031 -23.632812 11.414062 -23.632812 C 7.425781 -23.886719 3.035156 -20.742188 0.878906 -15.582031 C -1.757812 -9.328125 -0.144531 -2.449219 4.464844 -0.257812 C 9.035156 1.976562 14.886719 -1.390625 17.558594 -7.644531 C 20.15625 -13.9375 18.582031 -20.777344 14.011719 -22.972656 Z M 10.902344 -6.621094 C 8.890625 -2.851562 6.328125 -1.757812 5.339844 -4.171875 C 4.28125 -6.621094 5.414062 -12.804688 7.460938 -16.609375 C 8.851562 -19.09375 10.425781 -20.414062 11.632812 -20.375 C 11.742188 -20.300781 12 -20.265625 12.144531 -20.191406 C 12.511719 -20.011719 12.914062 -19.679688 13.132812 -19.023438 C 14.230469 -16.644531 13.058594 -10.425781 10.902344 -6.621094 Z M 10.902344 -6.621094 "/></g></g></g><g fill="#403d3d" fill-opacity="1"><g transform="translate(306.415477, 689.881749)"><g><path d="M 15.472656 -22.9375 C 15.949219 -21.800781 13.972656 -15.65625 12.292969 -10.390625 C 10.71875 -14.011719 9.402344 -19.09375 8.707031 -21.070312 C 8.085938 -23.886719 2.925781 -23.703125 3.367188 -22.460938 C 4.097656 -20.558594 -2.011719 -4.023438 -1.976562 -1.71875 C -1.9375 -0.839844 -1.574219 -0.109375 -0.511719 0.257812 C 1.171875 0.878906 3.878906 0.0351562 3.769531 -0.402344 C 3.328125 -1.976562 4.023438 -5.304688 5.011719 -8.449219 C 5.414062 -9.875 5.925781 -11.488281 6.363281 -12.914062 C 6.402344 -12.765625 6.4375 -12.621094 6.476562 -12.546875 C 8.707031 -7.460938 9.109375 -3.878906 10.097656 -1.71875 C 10.460938 -0.914062 10.863281 -0.546875 11.339844 -0.402344 C 11.414062 -0.402344 11.488281 -0.328125 11.523438 -0.328125 C 13.207031 0.292969 15.949219 -0.546875 15.804688 -0.914062 C 15.363281 -2.488281 15.984375 -5.414062 16.9375 -8.558594 C 18.328125 -13.023438 20.15625 -17.996094 20.667969 -20.011719 C 21.914062 -24.21875 15.035156 -24.253906 15.472656 -22.9375 Z M 15.472656 -22.9375 "/></g></g></g><g fill="#403d3d" fill-opacity="1"><g transform="translate(327.301491, 689.881749)"><g><path d="M 10.207031 -5.378906 C 9.035156 -3.695312 6.402344 -3.511719 3.730469 -3.769531 C 3.878906 -5.15625 4.464844 -6.839844 4.9375 -8.378906 C 6.292969 -12.914062 7.976562 -17.558594 8.597656 -19.535156 C 9.730469 -23.8125 2.851562 -23.886719 3.328125 -22.460938 C 4.058594 -20.632812 -1.390625 -5.960938 -1.9375 -2.378906 C -1.9375 -2.378906 -1.9375 -2.339844 -1.9375 -2.269531 C -1.976562 -2.085938 -1.976562 -1.976562 -1.976562 -1.828125 C -1.976562 -1.351562 -1.792969 -0.878906 -1.5 -0.546875 C -1.097656 -0.0742188 -0.546875 0.109375 0.0351562 0 C 3.839844 -0.878906 7.644531 0.292969 9.253906 0.109375 C 13.570312 -0.292969 11.265625 -6.328125 10.207031 -5.378906 Z M 10.207031 -5.378906 "/></g></g></g><g fill="#403d3d" fill-opacity="1"><g transform="translate(342.95685, 689.881749)"><g><path d="M 14.886719 -22.972656 C 15.035156 -22.386719 14.816406 -21.179688 14.523438 -19.679688 C 13.460938 -15.21875 10.097656 -11.414062 8.378906 -11.558594 C 6.878906 -11.707031 6.695312 -13.058594 7.609375 -15.949219 C 7.976562 -17.230469 8.339844 -17.996094 8.890625 -19.535156 C 10.242188 -23.703125 3.109375 -24.035156 3.546875 -22.789062 C 4.28125 -20.742188 1.5 -15.621094 1.097656 -12.546875 C 0.839844 -9.839844 2.339844 -7.683594 5.230469 -7.644531 C 8.378906 -7.609375 11.011719 -10.058594 12.765625 -12.804688 C 12.328125 -11.304688 11.816406 -9.839844 11.523438 -8.890625 C 10.792969 -6.988281 9.035156 -2.925781 5.632812 -3.253906 C 4.71875 -3.292969 3.21875 -4.316406 3.546875 -6.035156 C 2.890625 -7.023438 -0.144531 -6.695312 0.0742188 -3.546875 C 0.328125 -1.5 2.414062 0.144531 5.230469 0.511719 C 9.328125 0.878906 13.535156 -1.171875 15.65625 -6.988281 C 16.789062 -9.839844 19.132812 -17.121094 20.082031 -20.121094 C 21.179688 -23.996094 14.414062 -24.4375 14.886719 -22.972656 Z M 14.886719 -22.972656 "/></g></g></g><g fill="#403d3d" fill-opacity="1"><g transform="translate(363.257612, 689.881749)"><g/></g></g><g fill="#403d3d" fill-opacity="1"><g transform="translate(373.023919, 689.881749)"><g><path d="M 14.449219 -23.375 C 12.765625 -22.242188 7.316406 -24.21875 5.15625 -23.558594 C 4.316406 -23.265625 3.769531 -22.789062 3.621094 -21.582031 C 3.476562 -19.828125 4.792969 -18.984375 5.230469 -19.167969 C 5.488281 -19.386719 5.960938 -19.460938 6.402344 -19.460938 C 5.449219 -15.21875 2.890625 -7.753906 1.9375 -4.058594 C 0.949219 -4.171875 0.0742188 -4.171875 -0.511719 -3.914062 C -1.351562 -3.730469 -1.828125 -3.21875 -1.976562 -2.046875 C -2.085938 -0.257812 -0.695312 0.585938 -0.328125 0.402344 C 0.988281 -0.511719 5.230469 0.328125 7.316406 0.328125 C 11.667969 0.292969 10.023438 -4.792969 8.890625 -4.023438 C 8.488281 -3.730469 7.902344 -3.546875 7.207031 -3.546875 C 7.425781 -5.011719 7.863281 -6.730469 8.378906 -8.449219 C 9.65625 -12.511719 11.230469 -16.644531 11.816406 -18.914062 C 12.253906 -18.914062 12.582031 -18.875 12.914062 -18.875 C 17.191406 -18.875 15.621094 -24.328125 14.449219 -23.375 Z M 14.449219 -23.375 "/></g></g></g><g fill="#403d3d" fill-opacity="1"><g transform="translate(388.825586, 689.881749)"><g><path d="M 15.472656 -22.9375 C 15.949219 -21.800781 13.972656 -15.65625 12.292969 -10.390625 C 10.71875 -14.011719 9.402344 -19.09375 8.707031 -21.070312 C 8.085938 -23.886719 2.925781 -23.703125 3.367188 -22.460938 C 4.097656 -20.558594 -2.011719 -4.023438 -1.976562 -1.71875 C -1.9375 -0.839844 -1.574219 -0.109375 -0.511719 0.257812 C 1.171875 0.878906 3.878906 0.0351562 3.769531 -0.402344 C 3.328125 -1.976562 4.023438 -5.304688 5.011719 -8.449219 C 5.414062 -9.875 5.925781 -11.488281 6.363281 -12.914062 C 6.402344 -12.765625 6.4375 -12.621094 6.476562 -12.546875 C 8.707031 -7.460938 9.109375 -3.878906 10.097656 -1.71875 C 10.460938 -0.914062 10.863281 -0.546875 11.339844 -0.402344 C 11.414062 -0.402344 11.488281 -0.328125 11.523438 -0.328125 C 13.207031 0.292969 15.949219 -0.546875 15.804688 -0.914062 C 15.363281 -2.488281 15.984375 -5.414062 16.9375 -8.558594 C 18.328125 -13.023438 20.15625 -17.996094 20.667969 -20.011719 C 21.914062 -24.21875 15.035156 -24.253906 15.472656 -22.9375 Z M 15.472656 -22.9375 "/></g></g></g><g fill="#403d3d" fill-opacity="1"><g transform="translate(409.7116, 689.881749)"><g/></g></g><g fill="#403d3d" fill-opacity="1"><g transform="translate(419.477906, 689.881749)"><g><path d="M 17.816406 -23.777344 C 16.132812 -22.496094 4.242188 -24.253906 1.976562 -23.59375 C 1.171875 -23.300781 0.585938 -22.828125 0.511719 -21.621094 C 0.328125 -19.863281 1.792969 -17.851562 2.230469 -18.070312 C 3 -18.582031 4.644531 -18.875 6.402344 -18.949219 C 5.195312 -13.679688 1.609375 -3.914062 1.644531 -2.121094 C 1.71875 -1.351562 2.085938 -0.660156 3.109375 -0.257812 C 4.792969 0.402344 7.5 -0.511719 7.425781 -0.878906 C 6.988281 -2.449219 7.609375 -5.378906 8.558594 -8.488281 C 9.804688 -12.695312 11.339844 -16.71875 12 -18.875 C 13.535156 -18.621094 14.816406 -18.398438 16.351562 -18.398438 C 20.667969 -18.398438 18.984375 -24.582031 17.816406 -23.777344 Z M 17.816406 -23.777344 "/></g></g></g><g fill="#403d3d" fill-opacity="1"><g transform="translate(436.632958, 689.881749)"><g><path d="M 16.058594 -22.9375 C 16.425781 -21.984375 15.070312 -17.375 13.570312 -12.695312 C 12.109375 -12.804688 10.242188 -13.167969 8.449219 -13.570312 C 9.328125 -16.097656 10.058594 -18.328125 10.425781 -19.535156 C 11.558594 -23.777344 4.683594 -23.886719 5.195312 -22.460938 C 5.488281 -21.621094 4.644531 -18.398438 3.476562 -14.523438 C 2.523438 -14.707031 1.828125 -14.777344 1.5 -14.707031 C 0.695312 -14.523438 0.0351562 -13.9375 -0.109375 -12.914062 C -0.511719 -11.265625 0.109375 -9.765625 0.660156 -9.402344 C 0.949219 -9.65625 1.5 -9.730469 2.046875 -9.765625 C 0.878906 -6 -0.109375 -2.597656 -0.109375 -1.71875 C -0.0742188 -0.839844 0.292969 -0.109375 1.351562 0.257812 C 3 0.878906 5.707031 0.0351562 5.597656 -0.402344 C 5.195312 -1.976562 5.851562 -5.304688 6.804688 -8.449219 C 6.878906 -8.78125 7.023438 -9.183594 7.132812 -9.621094 C 7.351562 -9.546875 7.644531 -9.4375 7.863281 -9.4375 C 10.023438 -9.183594 11.339844 -8.890625 12.292969 -8.667969 C 11.375 -5.523438 10.609375 -2.964844 10.644531 -2.121094 C 10.644531 -1.351562 11.011719 -0.660156 12.144531 -0.257812 C 13.792969 0.402344 16.535156 -0.511719 16.351562 -0.878906 C 15.949219 -2.449219 16.570312 -5.378906 17.484375 -8.488281 C 18.875 -12.988281 20.667969 -17.960938 21.289062 -20.011719 C 22.386719 -24.21875 15.546875 -24.253906 16.058594 -22.9375 Z M 16.058594 -22.9375 "/></g></g></g><g fill="#403d3d" fill-opacity="1"><g transform="translate(458.140796, 689.881749)"><g><path d="M 14.449219 -23.375 C 12.765625 -22.242188 7.316406 -24.21875 5.15625 -23.558594 C 4.316406 -23.265625 3.769531 -22.789062 3.621094 -21.582031 C 3.476562 -19.828125 4.792969 -18.984375 5.230469 -19.167969 C 5.488281 -19.386719 5.960938 -19.460938 6.402344 -19.460938 C 5.449219 -15.21875 2.890625 -7.753906 1.9375 -4.058594 C 0.949219 -4.171875 0.0742188 -4.171875 -0.511719 -3.914062 C -1.351562 -3.730469 -1.828125 -3.21875 -1.976562 -2.046875 C -2.085938 -0.257812 -0.695312 0.585938 -0.328125 0.402344 C 0.988281 -0.511719 5.230469 0.328125 7.316406 0.328125 C 11.667969 0.292969 10.023438 -4.792969 8.890625 -4.023438 C 8.488281 -3.730469 7.902344 -3.546875 7.207031 -3.546875 C 7.425781 -5.011719 7.863281 -6.730469 8.378906 -8.449219 C 9.65625 -12.511719 11.230469 -16.644531 11.816406 -18.914062 C 12.253906 -18.914062 12.582031 -18.875 12.914062 -18.875 C 17.191406 -18.875 15.621094 -24.328125 14.449219 -23.375 Z M 14.449219 -23.375 "/></g></g></g><g fill="#403d3d" fill-opacity="1"><g transform="translate(473.942463, 689.881749)"><g><path d="M 15.070312 -23.59375 C 10.058594 -23.996094 2.816406 -22.242188 2.011719 -16.609375 C 1.757812 -14.597656 2.964844 -12.988281 4.390625 -11.816406 C 6.144531 -10.570312 7.460938 -9.4375 8.890625 -8.339844 C 10.097656 -7.351562 11.558594 -6.035156 11.375 -5.011719 C 11.230469 -3.695312 9.253906 -2.925781 7.023438 -3.21875 C 4.644531 -3.476562 3.546875 -4.644531 3.621094 -5.632812 C 3.730469 -6.402344 4.097656 -7.316406 5.011719 -8.121094 C 5.230469 -8.339844 5.230469 -8.851562 5.011719 -9.035156 C 3.621094 -10.535156 0 -9.402344 -0.988281 -6.878906 C -2.597656 -3.035156 0.476562 0.292969 6.4375 0.511719 C 12.179688 0.695312 15.621094 -1.757812 16.167969 -4.171875 C 16.753906 -6.402344 15.914062 -8.195312 14.304688 -9.730469 C 12.21875 -11.707031 10.132812 -13.097656 9.109375 -14.046875 C 8.667969 -14.449219 7.171875 -15.472656 7.132812 -16.535156 C 6.914062 -18.546875 9.328125 -20.523438 12.511719 -20.558594 C 14.046875 -20.558594 14.597656 -19.351562 14.011719 -18.4375 C 13.207031 -17.121094 12.253906 -16.097656 12.582031 -14.742188 C 13.132812 -12.730469 16.535156 -11.558594 17.707031 -13.351562 C 17.230469 -15.472656 18.691406 -16.789062 19.386719 -19.425781 C 19.828125 -21.4375 18.328125 -23.300781 15.070312 -23.59375 Z M 15.070312 -23.59375 "/></g></g></g><g fill="#403d3d" fill-opacity="1"><g transform="translate(493.914019, 689.881749)"><g/></g></g><g fill="#403d3d" fill-opacity="1"><g transform="translate(503.680325, 689.881749)"><g><path d="M 10.207031 -5.378906 C 9.035156 -3.695312 6.402344 -3.511719 3.730469 -3.769531 C 3.878906 -5.15625 4.464844 -6.839844 4.9375 -8.378906 C 6.292969 -12.914062 7.976562 -17.558594 8.597656 -19.535156 C 9.730469 -23.8125 2.851562 -23.886719 3.328125 -22.460938 C 4.058594 -20.632812 -1.390625 -5.960938 -1.9375 -2.378906 C -1.9375 -2.378906 -1.9375 -2.339844 -1.9375 -2.269531 C -1.976562 -2.085938 -1.976562 -1.976562 -1.976562 -1.828125 C -1.976562 -1.351562 -1.792969 -0.878906 -1.5 -0.546875 C -1.097656 -0.0742188 -0.546875 0.109375 0.0351562 0 C 3.839844 -0.878906 7.644531 0.292969 9.253906 0.109375 C 13.570312 -0.292969 11.265625 -6.328125 10.207031 -5.378906 Z M 10.207031 -5.378906 "/></g></g></g><g fill="#403d3d" fill-opacity="1"><g transform="translate(519.335684, 689.881749)"><g><path d="M 14.449219 -23.375 C 12.765625 -22.242188 7.316406 -24.21875 5.15625 -23.558594 C 4.316406 -23.265625 3.769531 -22.789062 3.621094 -21.582031 C 3.476562 -19.828125 4.792969 -18.984375 5.230469 -19.167969 C 5.488281 -19.386719 5.960938 -19.460938 6.402344 -19.460938 C 5.449219 -15.21875 2.890625 -7.753906 1.9375 -4.058594 C 0.949219 -4.171875 0.0742188 -4.171875 -0.511719 -3.914062 C -1.351562 -3.730469 -1.828125 -3.21875 -1.976562 -2.046875 C -2.085938 -0.257812 -0.695312 0.585938 -0.328125 0.402344 C 0.988281 -0.511719 5.230469 0.328125 7.316406 0.328125 C 11.667969 0.292969 10.023438 -4.792969 8.890625 -4.023438 C 8.488281 -3.730469 7.902344 -3.546875 7.207031 -3.546875 C 7.425781 -5.011719 7.863281 -6.730469 8.378906 -8.449219 C 9.65625 -12.511719 11.230469 -16.644531 11.816406 -18.914062 C 12.253906 -18.914062 12.582031 -18.875 12.914062 -18.875 C 17.191406 -18.875 15.621094 -24.328125 14.449219 -23.375 Z M 14.449219 -23.375 "/></g></g></g><g fill="#403d3d" fill-opacity="1"><g transform="translate(535.137351, 689.881749)"><g><path d="M 15.472656 -22.9375 C 15.949219 -21.800781 13.972656 -15.65625 12.292969 -10.390625 C 10.71875 -14.011719 9.402344 -19.09375 8.707031 -21.070312 C 8.085938 -23.886719 2.925781 -23.703125 3.367188 -22.460938 C 4.097656 -20.558594 -2.011719 -4.023438 -1.976562 -1.71875 C -1.9375 -0.839844 -1.574219 -0.109375 -0.511719 0.257812 C 1.171875 0.878906 3.878906 0.0351562 3.769531 -0.402344 C 3.328125 -1.976562 4.023438 -5.304688 5.011719 -8.449219 C 5.414062 -9.875 5.925781 -11.488281 6.363281 -12.914062 C 6.402344 -12.765625 6.4375 -12.621094 6.476562 -12.546875 C 8.707031 -7.460938 9.109375 -3.878906 10.097656 -1.71875 C 10.460938 -0.914062 10.863281 -0.546875 11.339844 -0.402344 C 11.414062 -0.402344 11.488281 -0.328125 11.523438 -0.328125 C 13.207031 0.292969 15.949219 -0.546875 15.804688 -0.914062 C 15.363281 -2.488281 15.984375 -5.414062 16.9375 -8.558594 C 18.328125 -13.023438 20.15625 -17.996094 20.667969 -20.011719 C 21.914062 -24.21875 15.035156 -24.253906 15.472656 -22.9375 Z M 15.472656 -22.9375 "/></g></g></g><g fill="#403d3d" fill-opacity="1"><g transform="translate(556.023365, 689.881749)"><g><path d="M 16.460938 -23.121094 C 14.707031 -22.058594 8.925781 -23.558594 5.523438 -23.59375 C 4.316406 -23.777344 3.21875 -23.484375 3.402344 -22.898438 C 3.402344 -22.863281 3.402344 -22.828125 3.402344 -22.789062 C 3.476562 -22.679688 3.476562 -22.535156 3.476562 -22.460938 C 3.546875 -19.425781 -2.011719 -4.316406 -1.976562 -2.085938 C -1.9375 -1.242188 -1.574219 -0.546875 -0.511719 -0.109375 C 0.0351562 0.0351562 0.695312 0.0742188 1.28125 0 C 1.351562 0 1.351562 0 1.351562 0 C 1.390625 0 1.425781 0 1.5 -0.0351562 C 1.535156 -0.0351562 1.574219 -0.0351562 1.609375 -0.0351562 C 4.5 -0.546875 7.171875 0.292969 9.65625 0.292969 C 14.742188 0.402344 13.351562 -5.488281 11.851562 -4.644531 C 10.425781 -2.449219 6.363281 -5.085938 3.402344 -3.914062 C 3.730469 -5.414062 4.242188 -7.097656 4.574219 -8.558594 C 4.683594 -8.960938 4.902344 -9.546875 5.085938 -10.097656 C 6.839844 -10.28125 8.78125 -9.402344 10.460938 -9.4375 C 14.925781 -9.621094 13.242188 -14.816406 12.144531 -14.011719 C 10.644531 -12.695312 8.597656 -14.082031 6.363281 -14.011719 C 7.023438 -15.914062 7.71875 -17.707031 8.085938 -19.09375 C 10.097656 -18.914062 12.582031 -18.398438 14.230469 -18.328125 C 19.351562 -18.144531 17.886719 -23.960938 16.460938 -23.121094 Z M 16.460938 -23.121094 "/></g></g></g><g fill="#403d3d" fill-opacity="1"><g transform="translate(340.976231, 725.334978)"><g><path d="M 10.023438 -23.632812 C 8.085938 -23.742188 4.753906 -23.558594 2.597656 -21.546875 C 0 -19.167969 1.792969 -15.472656 2.414062 -16.097656 C 2.523438 -16.167969 2.597656 -16.351562 2.816406 -16.460938 C 2.707031 -16.207031 2.597656 -16.058594 2.5625 -15.804688 C 1.0625 -10.207031 -1.535156 -3.804688 -1.5 -2.121094 C -1.425781 -1.351562 -1.0625 -0.660156 0 -0.257812 C 1.644531 0.402344 4.390625 -0.476562 4.28125 -0.839844 C 3.839844 -2.230469 4.390625 -4.753906 5.195312 -7.425781 C 5.632812 -6.144531 6.765625 -5.230469 7.828125 -4.902344 C 11.085938 -3.878906 15.695312 -7.171875 17.484375 -11.707031 C 19.316406 -16.277344 18.144531 -23.300781 10.023438 -23.632812 Z M 11.523438 -11.085938 C 9.839844 -8.488281 7.753906 -8.488281 7.171875 -9.4375 C 6.4375 -10.570312 6.804688 -11.851562 7.242188 -13.644531 C 7.828125 -15.070312 8.195312 -16.058594 8.488281 -17.046875 C 8.851562 -18.328125 8.488281 -19.132812 7.863281 -19.71875 C 9.109375 -20.121094 10.097656 -20.15625 10.71875 -20.011719 C 12.144531 -19.789062 12.730469 -18.914062 12.988281 -18.511719 C 13.679688 -16.902344 13.097656 -13.535156 11.523438 -11.085938 Z M 11.523438 -11.085938 "/></g></g></g><g fill="#403d3d" fill-opacity="1"><g transform="translate(360.14308, 725.334978)"><g><path d="M 18.65625 -16.570312 C 19.132812 -19.898438 15.65625 -23.375 10.023438 -23.632812 C 8.085938 -23.742188 4.753906 -23.558594 2.597656 -21.546875 C 0 -19.167969 1.792969 -15.472656 2.414062 -16.097656 C 2.523438 -16.167969 2.597656 -16.351562 2.816406 -16.460938 C 2.707031 -16.207031 2.597656 -16.023438 2.5625 -15.804688 C 1.0625 -10.207031 -1.535156 -3.804688 -1.5 -2.121094 C -1.425781 -1.351562 -1.0625 -0.660156 0 -0.257812 C 1.644531 0.402344 4.390625 -0.476562 4.28125 -0.839844 C 3.914062 -1.9375 4.242188 -3.730469 4.683594 -5.632812 C 5.339844 -5.925781 5.960938 -6.144531 6.476562 -6.292969 C 6.621094 -6.253906 6.730469 -6.183594 6.765625 -6.035156 C 8.851562 -3.253906 9.839844 -0.914062 10.902344 0 C 11.667969 0.660156 12.695312 0.769531 13.792969 0.476562 C 15.949219 -0.144531 16.789062 -2.851562 16.460938 -2.925781 C 13.644531 -3.292969 12.21875 -5.488281 10.644531 -7.976562 C 16.644531 -10.863281 18.398438 -13.679688 18.65625 -16.570312 Z M 13.792969 -16.972656 C 13.609375 -14.304688 10.132812 -11.085938 5.707031 -9.21875 C 6.988281 -13.207031 7.9375 -15.179688 8.488281 -17.046875 C 8.851562 -18.253906 8.488281 -19.09375 7.902344 -19.679688 C 9.144531 -20.011719 10.097656 -20.082031 10.71875 -20.011719 C 12.730469 -19.972656 13.863281 -18.65625 13.792969 -16.972656 Z M 13.792969 -16.972656 "/></g></g></g><g fill="#403d3d" fill-opacity="1"><g transform="translate(379.858592, 725.334978)"><g><path d="M 14.011719 -22.972656 C 13.460938 -23.230469 12.804688 -23.375 12.253906 -23.558594 C 12 -23.59375 11.707031 -23.632812 11.414062 -23.632812 C 7.425781 -23.886719 3.035156 -20.742188 0.878906 -15.582031 C -1.757812 -9.328125 -0.144531 -2.449219 4.464844 -0.257812 C 9.035156 1.976562 14.886719 -1.390625 17.558594 -7.644531 C 20.15625 -13.9375 18.582031 -20.777344 14.011719 -22.972656 Z M 10.902344 -6.621094 C 8.890625 -2.851562 6.328125 -1.757812 5.339844 -4.171875 C 4.28125 -6.621094 5.414062 -12.804688 7.460938 -16.609375 C 8.851562 -19.09375 10.425781 -20.414062 11.632812 -20.375 C 11.742188 -20.300781 12 -20.265625 12.144531 -20.191406 C 12.511719 -20.011719 12.914062 -19.679688 13.132812 -19.023438 C 14.230469 -16.644531 13.058594 -10.425781 10.902344 -6.621094 Z M 10.902344 -6.621094 "/></g></g></g><g fill="#403d3d" fill-opacity="1"><g transform="translate(400.122765, 725.334978)"><g><path d="M 19.425781 -23.484375 C 17.191406 -22.425781 13.5 -13.570312 10.570312 -9.109375 C 9.65625 -12.109375 9.765625 -17.996094 8.707031 -20.996094 C 8.195312 -23.886719 2.890625 -23.703125 3.367188 -22.460938 C 4.097656 -20.558594 -2.011719 -3.914062 -1.976562 -1.609375 C -1.9375 -0.804688 -1.574219 -0.0742188 -0.511719 0.292969 C 1.171875 0.914062 3.878906 0.0742188 3.769531 -0.328125 C 3.328125 -1.9375 4.023438 -5.230469 5.011719 -8.378906 C 5.304688 -9.402344 5.523438 -10.425781 5.925781 -11.414062 C 6.253906 -7.644531 6.695312 -3.476562 8.488281 -2.78125 C 9.144531 -2.449219 9.875 -2.523438 10.828125 -3.402344 C 11.851562 -4.390625 14.707031 -9.839844 17.121094 -14.15625 C 15.582031 -9.109375 13.679688 -3.476562 13.679688 -2.121094 C 13.792969 -1.351562 14.15625 -0.660156 15.179688 -0.257812 C 16.902344 0.402344 19.535156 -0.511719 19.460938 -0.878906 C 19.023438 -2.449219 19.609375 -5.378906 20.59375 -8.488281 C 21.984375 -12.988281 23.8125 -17.960938 24.363281 -20.011719 C 25.351562 -23.558594 20.632812 -24.144531 19.425781 -23.484375 Z M 19.425781 -23.484375 "/></g></g></g><g fill="#403d3d" fill-opacity="1"><g transform="translate(424.703151, 725.334978)"><g><path d="M 14.011719 -22.972656 C 13.460938 -23.230469 12.804688 -23.375 12.253906 -23.558594 C 12 -23.59375 11.707031 -23.632812 11.414062 -23.632812 C 7.425781 -23.886719 3.035156 -20.742188 0.878906 -15.582031 C -1.757812 -9.328125 -0.144531 -2.449219 4.464844 -0.257812 C 9.035156 1.976562 14.886719 -1.390625 17.558594 -7.644531 C 20.15625 -13.9375 18.582031 -20.777344 14.011719 -22.972656 Z M 10.902344 -6.621094 C 8.890625 -2.851562 6.328125 -1.757812 5.339844 -4.171875 C 4.28125 -6.621094 5.414062 -12.804688 7.460938 -16.609375 C 8.851562 -19.09375 10.425781 -20.414062 11.632812 -20.375 C 11.742188 -20.300781 12 -20.265625 12.144531 -20.191406 C 12.511719 -20.011719 12.914062 -19.679688 13.132812 -19.023438 C 14.230469 -16.644531 13.058594 -10.425781 10.902344 -6.621094 Z M 10.902344 -6.621094 "/></g></g></g><g fill="#403d3d" fill-opacity="1"><g transform="translate(444.967324, 725.334978)"><g><path d="M 17.816406 -23.777344 C 16.132812 -22.496094 4.242188 -24.253906 1.976562 -23.59375 C 1.171875 -23.300781 0.585938 -22.828125 0.511719 -21.621094 C 0.328125 -19.863281 1.792969 -17.851562 2.230469 -18.070312 C 3 -18.582031 4.644531 -18.875 6.402344 -18.949219 C 5.195312 -13.679688 1.609375 -3.914062 1.644531 -2.121094 C 1.71875 -1.351562 2.085938 -0.660156 3.109375 -0.257812 C 4.792969 0.402344 7.5 -0.511719 7.425781 -0.878906 C 6.988281 -2.449219 7.609375 -5.378906 8.558594 -8.488281 C 9.804688 -12.695312 11.339844 -16.71875 12 -18.875 C 13.535156 -18.621094 14.816406 -18.398438 16.351562 -18.398438 C 20.667969 -18.398438 18.984375 -24.582031 17.816406 -23.777344 Z M 17.816406 -23.777344 "/></g></g></g><g fill="#403d3d" fill-opacity="1"><g transform="translate(462.122375, 725.334978)"><g><path d="M 14.449219 -23.375 C 12.765625 -22.242188 7.316406 -24.21875 5.15625 -23.558594 C 4.316406 -23.265625 3.769531 -22.789062 3.621094 -21.582031 C 3.476562 -19.828125 4.792969 -18.984375 5.230469 -19.167969 C 5.488281 -19.386719 5.960938 -19.460938 6.402344 -19.460938 C 5.449219 -15.21875 2.890625 -7.753906 1.9375 -4.058594 C 0.949219 -4.171875 0.0742188 -4.171875 -0.511719 -3.914062 C -1.351562 -3.730469 -1.828125 -3.21875 -1.976562 -2.046875 C -2.085938 -0.257812 -0.695312 0.585938 -0.328125 0.402344 C 0.988281 -0.511719 5.230469 0.328125 7.316406 0.328125 C 11.667969 0.292969 10.023438 -4.792969 8.890625 -4.023438 C 8.488281 -3.730469 7.902344 -3.546875 7.207031 -3.546875 C 7.425781 -5.011719 7.863281 -6.730469 8.378906 -8.449219 C 9.65625 -12.511719 11.230469 -16.644531 11.816406 -18.914062 C 12.253906 -18.914062 12.582031 -18.875 12.914062 -18.875 C 17.191406 -18.875 15.621094 -24.328125 14.449219 -23.375 Z M 14.449219 -23.375 "/></g></g></g><g fill="#403d3d" fill-opacity="1"><g transform="translate(477.924043, 725.334978)"><g><path d="M 14.011719 -22.972656 C 13.460938 -23.230469 12.804688 -23.375 12.253906 -23.558594 C 12 -23.59375 11.707031 -23.632812 11.414062 -23.632812 C 7.425781 -23.886719 3.035156 -20.742188 0.878906 -15.582031 C -1.757812 -9.328125 -0.144531 -2.449219 4.464844 -0.257812 C 9.035156 1.976562 14.886719 -1.390625 17.558594 -7.644531 C 20.15625 -13.9375 18.582031 -20.777344 14.011719 -22.972656 Z M 10.902344 -6.621094 C 8.890625 -2.851562 6.328125 -1.757812 5.339844 -4.171875 C 4.28125 -6.621094 5.414062 -12.804688 7.460938 -16.609375 C 8.851562 -19.09375 10.425781 -20.414062 11.632812 -20.375 C 11.742188 -20.300781 12 -20.265625 12.144531 -20.191406 C 12.511719 -20.011719 12.914062 -19.679688 13.132812 -19.023438 C 14.230469 -16.644531 13.058594 -10.425781 10.902344 -6.621094 Z M 10.902344 -6.621094 "/></g></g></g><g fill="#403d3d" fill-opacity="1"><g transform="translate(498.188215, 725.334978)"><g><path d="M 15.472656 -22.9375 C 15.949219 -21.800781 13.972656 -15.65625 12.292969 -10.390625 C 10.71875 -14.011719 9.402344 -19.09375 8.707031 -21.070312 C 8.085938 -23.886719 2.925781 -23.703125 3.367188 -22.460938 C 4.097656 -20.558594 -2.011719 -4.023438 -1.976562 -1.71875 C -1.9375 -0.839844 -1.574219 -0.109375 -0.511719 0.257812 C 1.171875 0.878906 3.878906 0.0351562 3.769531 -0.402344 C 3.328125 -1.976562 4.023438 -5.304688 5.011719 -8.449219 C 5.414062 -9.875 5.925781 -11.488281 6.363281 -12.914062 C 6.402344 -12.765625 6.4375 -12.621094 6.476562 -12.546875 C 8.707031 -7.460938 9.109375 -3.878906 10.097656 -1.71875 C 10.460938 -0.914062 10.863281 -0.546875 11.339844 -0.402344 C 11.414062 -0.402344 11.488281 -0.328125 11.523438 -0.328125 C 13.207031 0.292969 15.949219 -0.546875 15.804688 -0.914062 C 15.363281 -2.488281 15.984375 -5.414062 16.9375 -8.558594 C 18.328125 -13.023438 20.15625 -17.996094 20.667969 -20.011719 C 21.914062 -24.21875 15.035156 -24.253906 15.472656 -22.9375 Z M 15.472656 -22.9375 "/></g></g></g></svg>