<svg width="20" height="20" viewBox="0 0 20 20" fill="none" xmlns="http://www.w3.org/2000/svg">
<g id="Globe2" clip-path="url(#clip0_201_1426)">
<path id="Vector" d="M0 10C0 7.34784 1.05357 4.8043 2.92893 2.92893C4.8043 1.05357 7.34784 0 10 0C12.6522 0 15.1957 1.05357 17.0711 2.92893C18.9464 4.8043 20 7.34784 20 10C20 12.6522 18.9464 15.1957 17.0711 17.0711C15.1957 18.9464 12.6522 20 10 20C7.34784 20 4.8043 18.9464 2.92893 17.0711C1.05357 15.1957 0 12.6522 0 10ZM9.375 1.34625C8.5375 1.60125 7.70625 2.37125 7.01625 3.665C6.8375 4 6.67125 4.365 6.5225 4.755C7.40375 4.95125 8.3625 5.07625 9.375 5.11375V1.34625ZM5.31125 4.42375C5.48875 3.94375 5.69125 3.49375 5.9125 3.07625C6.12863 2.66757 6.37824 2.27749 6.65875 1.91C5.59458 2.351 4.62781 2.9975 3.81375 3.8125C4.26625 4.0425 4.7675 4.2475 5.31125 4.42375ZM4.38625 9.375C4.43125 8.0375 4.62125 6.76625 4.93125 5.615C4.25462 5.39861 3.59969 5.11948 2.975 4.78125C1.97943 6.11794 1.38853 7.71234 1.2725 9.375H4.385H4.38625ZM6.13625 5.94875C5.84156 7.06846 5.67384 8.21777 5.63625 9.375H9.375V6.36375C8.2375 6.32625 7.14625 6.1825 6.13625 5.94875ZM10.625 6.3625V9.375H14.3625C14.3253 8.21782 14.158 7.0685 13.8637 5.94875C12.8537 6.1825 11.7625 6.32375 10.625 6.3625ZM5.6375 10.625C5.68125 11.8588 5.8575 13.0175 6.13625 14.0513C7.20007 13.8098 8.28465 13.6713 9.375 13.6375V10.625H5.6375ZM10.625 10.625V13.6363C11.7625 13.6738 12.8537 13.8175 13.8637 14.0513C14.1425 13.0175 14.3188 11.8588 14.3638 10.625H10.625ZM6.5225 15.245C6.6725 15.635 6.8375 16 7.01625 16.335C7.70625 17.6287 8.53875 18.3975 9.375 18.6538V14.8875C8.3625 14.925 7.40375 15.0487 6.5225 15.245ZM6.66 18.09C6.37904 17.7226 6.12901 17.3325 5.9125 16.9237C5.68228 16.4881 5.48141 16.0375 5.31125 15.575C4.79704 15.7403 4.29638 15.945 3.81375 16.1875C4.62781 17.0025 5.59583 17.649 6.66 18.09ZM4.93125 14.385C4.60672 13.1565 4.42345 11.895 4.385 10.625H1.2725C1.38846 12.2877 1.97937 13.8821 2.975 15.2188C3.5625 14.8963 4.21875 14.6163 4.93125 14.385ZM13.3413 18.09C14.4049 17.6493 15.3712 17.0032 16.185 16.1888C15.7028 15.9463 15.2025 15.7415 14.6888 15.5763C14.5185 16.0383 14.3177 16.4885 14.0875 16.9237C13.8714 17.3325 13.6218 17.7226 13.3413 18.09ZM10.625 14.8863V18.6538C11.4625 18.3988 12.2937 17.6287 12.9838 16.335C13.1625 16 13.3287 15.635 13.4775 15.245C12.5395 15.0393 11.5847 14.9184 10.625 14.8863ZM15.0688 14.385C15.7812 14.6163 16.4375 14.8963 17.025 15.2188C18.0206 13.8821 18.6115 12.2877 18.7275 10.625H15.615C15.5765 11.895 15.3933 13.1565 15.0688 14.385ZM18.7275 9.375C18.6115 7.71233 18.0206 6.11791 17.025 4.78125C16.4375 5.10375 15.7812 5.38375 15.0688 5.615C15.3788 6.765 15.5687 8.0375 15.615 9.375H18.7275ZM14.0875 3.07625C14.3088 3.49375 14.5112 3.94375 14.69 4.42375C15.2034 4.25843 15.7032 4.05365 16.185 3.81125C15.3711 2.99728 14.4048 2.35165 13.3413 1.91125C13.6138 2.265 13.8638 2.6575 14.0875 3.07625ZM13.4775 4.755C13.3355 4.38186 13.1706 4.01783 12.9838 3.665C12.2937 2.37125 11.4625 1.6025 10.625 1.34625V5.1125C11.6375 5.075 12.5962 4.95125 13.4775 4.755Z" fill="black"/>
</g>
<defs>
<clipPath id="clip0_201_1426">
<rect width="20" height="20" fill="white"/>
</clipPath>
</defs>
</svg>
