<svg width="34" height="35" viewBox="0 0 34 35" fill="none" xmlns="http://www.w3.org/2000/svg">
<g id="BoxArrowLeft" clip-path="url(#clip0_212_959)">
<path id="Vector" fill-rule="evenodd" clip-rule="evenodd" d="M12.75 27.3438C12.75 27.6338 12.8619 27.912 13.0612 28.1171C13.2605 28.3223 13.5307 28.4375 13.8125 28.4375H30.8125C31.0943 28.4375 31.3645 28.3223 31.5638 28.1171C31.7631 27.912 31.875 27.6338 31.875 27.3438V7.65625C31.875 7.36617 31.7631 7.08797 31.5638 6.88285C31.3645 6.67773 31.0943 6.5625 30.8125 6.5625H13.8125C13.5307 6.5625 13.2605 6.67773 13.0612 6.88285C12.8619 7.08797 12.75 7.36617 12.75 7.65625V12.0312C12.75 12.3213 12.6381 12.5995 12.4388 12.8046C12.2395 13.0098 11.9693 13.125 11.6875 13.125C11.4057 13.125 11.1355 13.0098 10.9362 12.8046C10.7369 12.5995 10.625 12.3213 10.625 12.0312V7.65625C10.625 6.78601 10.9608 5.95141 11.5586 5.33606C12.1564 4.7207 12.9671 4.375 13.8125 4.375H30.8125C31.6579 4.375 32.4686 4.7207 33.0664 5.33606C33.6642 5.95141 34 6.78601 34 7.65625V27.3438C34 28.214 33.6642 29.0486 33.0664 29.6639C32.4686 30.2793 31.6579 30.625 30.8125 30.625H13.8125C12.9671 30.625 12.1564 30.2793 11.5586 29.6639C10.9608 29.0486 10.625 28.214 10.625 27.3438V22.9688C10.625 22.6787 10.7369 22.4005 10.9362 22.1954C11.1355 21.9902 11.4057 21.875 11.6875 21.875C11.9693 21.875 12.2395 21.9902 12.4388 22.1954C12.6381 22.4005 12.75 22.6787 12.75 22.9688V27.3438Z" fill="#C10206"/>
<path id="Vector_2" fill-rule="evenodd" clip-rule="evenodd" d="M0.310196 18.2744C0.211249 18.1728 0.132746 18.0521 0.079182 17.9192C0.0256183 17.7863 -0.00195313 17.6438 -0.00195312 17.5C-0.00195313 17.3561 0.0256183 17.2137 0.079182 17.0808C0.132746 16.9479 0.211249 16.8272 0.310196 16.7256L6.6852 10.1631C6.78398 10.0614 6.90126 9.98074 7.03033 9.92571C7.1594 9.87067 7.29774 9.84235 7.43745 9.84235C7.57715 9.84235 7.71549 9.87067 7.84456 9.92571C7.97363 9.98074 8.09091 10.0614 8.1897 10.1631C8.28848 10.2648 8.36685 10.3855 8.42031 10.5184C8.47377 10.6513 8.50129 10.7937 8.50129 10.9375C8.50129 11.0813 8.47377 11.2237 8.42031 11.3566C8.36685 11.4894 8.28848 11.6102 8.1897 11.7119L3.62732 16.4062H22.3124C22.5942 16.4062 22.8645 16.5215 23.0637 16.7266C23.263 16.9317 23.3749 17.2099 23.3749 17.5C23.3749 17.7901 23.263 18.0683 23.0637 18.2734C22.8645 18.4785 22.5942 18.5937 22.3124 18.5937H3.62732L8.1897 23.2881C8.28848 23.3898 8.36685 23.5105 8.42031 23.6434C8.47377 23.7763 8.50129 23.9187 8.50129 24.0625C8.50129 24.2063 8.47377 24.3487 8.42031 24.4816C8.36685 24.6144 8.28848 24.7352 8.1897 24.8369C8.09091 24.9385 7.97363 25.0192 7.84456 25.0742C7.71549 25.1293 7.57715 25.1576 7.43745 25.1576C7.29774 25.1576 7.1594 25.1293 7.03033 25.0742C6.90126 25.0192 6.78398 24.9385 6.6852 24.8369L0.310196 18.2744Z" fill="#C10206"/>
</g>
<defs>
<clipPath id="clip0_212_959">
<rect width="34" height="35" fill="white"/>
</clipPath>
</defs>
</svg>
