<svg width="27" height="27" viewBox="0 0 27 27" fill="none" xmlns="http://www.w3.org/2000/svg">
<g id="CheckCircleFill" clip-path="url(#clip0_1151_1146)">
<path id="Vector" d="M27 13.5C27 17.0804 25.5777 20.5142 23.0459 23.0459C20.5142 25.5777 17.0804 27 13.5 27C9.91958 27 6.4858 25.5777 3.95406 23.0459C1.42232 20.5142 0 17.0804 0 13.5C0 9.91958 1.42232 6.4858 3.95406 3.95406C6.4858 1.42232 9.91958 0 13.5 0C17.0804 0 20.5142 1.42232 23.0459 3.95406C25.5777 6.4858 27 9.91958 27 13.5ZM20.3006 8.38687C20.1801 8.26676 20.0366 8.17218 19.8786 8.1088C19.7207 8.04542 19.5516 8.01454 19.3815 8.01801C19.2113 8.02147 19.0437 8.05921 18.8884 8.12897C18.7332 8.19873 18.5937 8.29907 18.4781 8.424L12.6174 15.8912L9.0855 12.3576C8.84558 12.134 8.52825 12.0123 8.20037 12.0181C7.87249 12.0239 7.55965 12.1567 7.32776 12.3886C7.09588 12.6205 6.96305 12.9333 6.95727 13.2612C6.95148 13.5891 7.07319 13.9064 7.29675 14.1463L11.7619 18.6131C11.8822 18.7332 12.0254 18.8278 12.183 18.8913C12.3407 18.9548 12.5095 18.9859 12.6794 18.9828C12.8494 18.9796 13.0169 18.9423 13.1721 18.873C13.3273 18.8037 13.4669 18.7038 13.5827 18.5794L20.3192 10.1587C20.5488 9.91997 20.6757 9.60065 20.6726 9.26937C20.6694 8.93808 20.5365 8.62124 20.3023 8.38687H20.3006Z" fill="#7DC46C"/>
</g>
<defs>
<clipPath id="clip0_1151_1146">
<rect width="27" height="27" fill="white"/>
</clipPath>
</defs>
</svg>
