<svg width="34" height="31" viewBox="0 0 34 31" fill="none" xmlns="http://www.w3.org/2000/svg">
<path id="Vector" d="M17.0003 5.67928L15.4766 4.15615C11.9001 0.580832 5.34219 1.81463 2.97487 6.30961C1.86346 8.42381 1.6127 11.4763 3.64214 15.3719C5.5972 19.1229 9.66457 23.6158 17.0003 28.5097C24.336 23.6158 28.4013 19.1229 30.3584 15.3719C32.3879 11.4742 32.1393 8.42381 31.0257 6.30961C28.6584 1.81463 22.1004 0.578765 18.524 4.15409L17.0003 5.67928ZM17.0003 31C-15.5833 10.0606 6.96786 -6.28255 16.6263 2.36229C16.7538 2.47596 16.8792 2.59376 17.0003 2.71569C17.1202 2.59387 17.245 2.47667 17.3743 2.36436C27.0306 -6.28668 49.5839 10.0585 17.0003 31Z" fill="white"/>
</svg>
