<svg width="33" height="33" viewBox="0 0 33 33" fill="none" xmlns="http://www.w3.org/2000/svg">
<path id="Vector" d="M26.5084 0.301901C26.3151 0.108594 26.0528 0 25.7794 0C25.506 0 25.2438 0.108594 25.0504 0.301901L21.6538 3.69845L29.2987 11.3433L32.6952 7.94877C32.7912 7.85299 32.8674 7.7392 32.9194 7.61393C32.9714 7.48866 32.9981 7.35436 32.9981 7.21873C32.9981 7.0831 32.9714 6.9488 32.9194 6.82353C32.8674 6.69826 32.7912 6.58447 32.6952 6.48869L26.5084 0.301901ZM27.8406 12.8013L20.1958 5.15647L6.79112 18.5612H7.21801C7.49148 18.5612 7.75375 18.6698 7.94713 18.8632C8.1405 19.0566 8.24914 19.3188 8.24914 19.5923V20.6234H9.28027C9.55374 20.6234 9.81602 20.7321 10.0094 20.9254C10.2028 21.1188 10.3114 21.3811 10.3114 21.6546V22.6857H11.3425C11.616 22.6857 11.8783 22.7943 12.0717 22.9877C12.265 23.1811 12.3737 23.4434 12.3737 23.7168V24.748H13.4048C13.6783 24.748 13.9405 24.8566 14.1339 25.05C14.3273 25.2433 14.4359 25.5056 14.4359 25.7791V26.206L27.8406 12.8013ZM12.4397 28.2023C12.3963 28.0869 12.3739 27.9646 12.3737 27.8414V26.8102H11.3425C11.0691 26.8102 10.8068 26.7016 10.6134 26.5082C10.42 26.3148 10.3114 26.0526 10.3114 25.7791V24.748H9.28027C9.0068 24.748 8.74452 24.6393 8.55115 24.446C8.35778 24.2526 8.24914 23.9903 8.24914 23.7168V22.6857H7.21801C6.94454 22.6857 6.68226 22.5771 6.48889 22.3837C6.29551 22.1903 6.18688 21.928 6.18688 21.6546V20.6234H5.15575C5.03246 20.6232 4.91022 20.6009 4.79485 20.5574L4.4257 20.9245C4.32744 21.0235 4.25026 21.1413 4.19886 21.271L0.0743298 31.5823C-0.00067606 31.7697 -0.0190374 31.975 0.021522 32.1727C0.0620815 32.3704 0.159778 32.5519 0.3025 32.6946C0.445222 32.8373 0.626693 32.935 0.824415 32.9756C1.02214 33.0161 1.22742 32.9978 1.4148 32.9228L11.7261 28.7982C11.8558 28.7468 11.9736 28.6697 12.0726 28.5714L12.4397 28.2023Z" fill="white"/>
</svg>
