<svg width="33" height="30" viewBox="0 0 33 30" fill="none" xmlns="http://www.w3.org/2000/svg">
<g id="Group 135">
<path id="Vector" d="M0 1.07143C0 0.787268 0.112882 0.514746 0.313814 0.313814C0.514746 0.112883 0.787268 0 1.07143 0H4.28571C4.52471 6.60246e-05 4.75682 0.0800372 4.94514 0.227196C5.13346 0.374355 5.26716 0.580251 5.325 0.812143L6.19286 4.28571H31.0714C31.2342 4.28576 31.3948 4.32288 31.541 4.39426C31.6873 4.46563 31.8154 4.56939 31.9156 4.69766C32.0157 4.82592 32.0854 4.97532 32.1192 5.13452C32.153 5.29371 32.1501 5.45852 32.1107 5.61643L28.8964 18.4736C28.8386 18.7055 28.7049 18.9114 28.5166 19.0585C28.3283 19.2057 28.0961 19.2856 27.8571 19.2857H8.57143C8.33243 19.2856 8.10032 19.2057 7.91201 19.0585C7.72369 18.9114 7.58998 18.7055 7.53214 18.4736L3.45 2.14286H1.07143C0.787268 2.14286 0.514746 2.02997 0.313814 1.82904C0.112882 1.62811 0 1.35559 0 1.07143ZM6.72857 6.42857L7.8 10.7143H10.7143V6.42857H6.72857ZM12.8571 6.42857V10.7143H17.1429V6.42857H12.8571ZM19.2857 6.42857V10.7143H23.5714V6.42857H19.2857ZM25.7143 6.42857V10.7143H28.6286L29.7 6.42857H25.7143ZM28.0929 12.8571H25.7143V17.1429H27.0214L28.0929 12.8571ZM23.5714 12.8571H19.2857V17.1429H23.5714V12.8571ZM17.1429 12.8571H12.8571V17.1429H17.1429V12.8571ZM10.7143 12.8571H8.33572L9.40714 17.1429H10.7143V12.8571ZM10.7143 23.5714C10.146 23.5714 9.60092 23.7972 9.19906 24.1991C8.79719 24.6009 8.57143 25.146 8.57143 25.7143C8.57143 26.2826 8.79719 26.8277 9.19906 27.2295C9.60092 27.6314 10.146 27.8571 10.7143 27.8571C11.2826 27.8571 11.8277 27.6314 12.2295 27.2295C12.6314 26.8277 12.8571 26.2826 12.8571 25.7143C12.8571 25.146 12.6314 24.6009 12.2295 24.1991C11.8277 23.7972 11.2826 23.5714 10.7143 23.5714ZM6.42857 25.7143C6.42857 24.5776 6.8801 23.4876 7.68383 22.6838C8.48756 21.8801 9.57764 21.4286 10.7143 21.4286C11.8509 21.4286 12.941 21.8801 13.7447 22.6838C14.5485 23.4876 15 24.5776 15 25.7143C15 26.8509 14.5485 27.941 13.7447 28.7447C12.941 29.5485 11.8509 30 10.7143 30C9.57764 30 8.48756 29.5485 7.68383 28.7447C6.8801 27.941 6.42857 26.8509 6.42857 25.7143ZM25.7143 23.5714C25.146 23.5714 24.6009 23.7972 24.1991 24.1991C23.7972 24.6009 23.5714 25.146 23.5714 25.7143C23.5714 26.2826 23.7972 26.8277 24.1991 27.2295C24.6009 27.6314 25.146 27.8571 25.7143 27.8571C26.2826 27.8571 26.8277 27.6314 27.2295 27.2295C27.6314 26.8277 27.8571 26.2826 27.8571 25.7143C27.8571 25.146 27.6314 24.6009 27.2295 24.1991C26.8277 23.7972 26.2826 23.5714 25.7143 23.5714ZM21.4286 25.7143C21.4286 24.5776 21.8801 23.4876 22.6838 22.6838C23.4876 21.8801 24.5776 21.4286 25.7143 21.4286C26.8509 21.4286 27.941 21.8801 28.7447 22.6838C29.5485 23.4876 30 24.5776 30 25.7143C30 26.8509 29.5485 27.941 28.7447 28.7447C27.941 29.5485 26.8509 30 25.7143 30C24.5776 30 23.4876 29.5485 22.6838 28.7447C21.8801 27.941 21.4286 26.8509 21.4286 25.7143Z" fill="white"/>
</g>
</svg>
