<svg width="27" height="27" viewBox="0 0 27 27" fill="none" xmlns="http://www.w3.org/2000/svg">
<g id="XCircleFill" clip-path="url(#clip0_1151_1128)">
<path id="Vector" d="M27 13.5C27 17.0804 25.5777 20.5142 23.0459 23.0459C20.5142 25.5777 17.0804 27 13.5 27C9.91958 27 6.4858 25.5777 3.95406 23.0459C1.42232 20.5142 0 17.0804 0 13.5C0 9.91958 1.42232 6.4858 3.95406 3.95406C6.4858 1.42232 9.91958 0 13.5 0C17.0804 0 20.5142 1.42232 23.0459 3.95406C25.5777 6.4858 27 9.91958 27 13.5ZM9.03487 7.84013C8.87644 7.68169 8.66156 7.59268 8.4375 7.59268C8.21344 7.59268 7.99856 7.68169 7.84013 7.84013C7.68169 7.99856 7.59268 8.21344 7.59268 8.4375C7.59268 8.66156 7.68169 8.87644 7.84013 9.03487L12.3069 13.5L7.84013 17.9651C7.76168 18.0436 7.69945 18.1367 7.65699 18.2392C7.61454 18.3417 7.59268 18.4516 7.59268 18.5625C7.59268 18.6734 7.61454 18.7833 7.65699 18.8858C7.69945 18.9883 7.76168 19.0814 7.84013 19.1599C7.99856 19.3183 8.21344 19.4073 8.4375 19.4073C8.54844 19.4073 8.6583 19.3855 8.7608 19.343C8.8633 19.3006 8.95643 19.2383 9.03487 19.1599L13.5 14.6931L17.9651 19.1599C18.0436 19.2383 18.1367 19.3006 18.2392 19.343C18.3417 19.3855 18.4516 19.4073 18.5625 19.4073C18.6734 19.4073 18.7833 19.3855 18.8858 19.343C18.9883 19.3006 19.0814 19.2383 19.1599 19.1599C19.2383 19.0814 19.3006 18.9883 19.343 18.8858C19.3855 18.7833 19.4073 18.6734 19.4073 18.5625C19.4073 18.4516 19.3855 18.3417 19.343 18.2392C19.3006 18.1367 19.2383 18.0436 19.1599 17.9651L14.6931 13.5L19.1599 9.03487C19.2383 8.95643 19.3006 8.8633 19.343 8.7608C19.3855 8.6583 19.4073 8.54844 19.4073 8.4375C19.4073 8.32656 19.3855 8.2167 19.343 8.1142C19.3006 8.0117 19.2383 7.91857 19.1599 7.84013C19.0814 7.76168 18.9883 7.69945 18.8858 7.65699C18.7833 7.61454 18.6734 7.59268 18.5625 7.59268C18.4516 7.59268 18.3417 7.61454 18.2392 7.65699C18.1367 7.69945 18.0436 7.76168 17.9651 7.84013L13.5 12.3069L9.03487 7.84013Z" fill="#C10206"/>
</g>
<defs>
<clipPath id="clip0_1151_1128">
<rect width="27" height="27" fill="white"/>
</clipPath>
</defs>
</svg>
